<svg width="249" height="64" viewBox="0 0 249 64" fill="none" xmlns="http://www.w3.org/2000/svg">
<path d="M6.66853 63.3422V55.6184H3.64453V54.5222H10.9399V55.6184H7.91593V63.3422H6.66853Z" fill="#FDFFFC"/>
<path d="M18.4988 58.3274H23.0348V59.3984H18.4988V58.3274ZM18.6122 62.246H23.753V63.3422H17.3522V54.5222H23.5766V55.6184H18.6122V62.246Z" fill="#FDFFFC"/>
<path d="M34.7648 63.443C34.0928 63.443 33.4712 63.3338 32.9 63.1154C32.3372 62.8886 31.8458 62.5736 31.4258 62.1704C31.0142 61.7588 30.6908 61.28 30.4556 60.734C30.2204 60.188 30.1028 59.5874 30.1028 58.9322C30.1028 58.277 30.2204 57.6764 30.4556 57.1304C30.6908 56.5844 31.0184 56.1098 31.4384 55.7066C31.8584 55.295 32.3498 54.98 32.9126 54.7616C33.4838 54.5348 34.1054 54.4214 34.7774 54.4214C35.4578 54.4214 36.0836 54.539 36.6548 54.7742C37.2344 55.001 37.7258 55.3412 38.129 55.7948L37.31 56.5886C36.974 56.2358 36.596 55.9754 36.176 55.8074C35.756 55.631 35.3066 55.5428 34.8278 55.5428C34.3322 55.5428 33.8702 55.6268 33.4418 55.7948C33.0218 55.9628 32.6564 56.198 32.3456 56.5004C32.0348 56.8028 31.7912 57.164 31.6148 57.584C31.4468 57.9956 31.3628 58.445 31.3628 58.9322C31.3628 59.4194 31.4468 59.873 31.6148 60.293C31.7912 60.7046 32.0348 61.0616 32.3456 61.364C32.6564 61.6664 33.0218 61.9016 33.4418 62.0696C33.8702 62.2376 34.3322 62.3216 34.8278 62.3216C35.3066 62.3216 35.756 62.2376 36.176 62.0696C36.596 61.8932 36.974 61.6244 37.31 61.2632L38.129 62.057C37.7258 62.5106 37.2344 62.855 36.6548 63.0902C36.0836 63.3254 35.4536 63.443 34.7648 63.443Z" fill="#FDFFFC"/>
<path d="M51.2916 54.5222H52.5516V63.3422H51.2916V54.5222ZM46.2264 63.3422H44.9664V54.5222H46.2264V63.3422ZM51.405 59.411H46.1004V58.3148H51.405V59.411Z" fill="#FDFFFC"/>
<path d="M60.2316 63.3422V54.5222H61.2648L67.0986 61.7672H66.5568V54.5222H67.8168V63.3422H66.7836L60.9498 56.0972H61.4916V63.3422H60.2316Z" fill="#FDFFFC"/>
<path d="M75.4968 63.3422V54.5222H76.7568V63.3422H75.4968Z" fill="#FDFFFC"/>
<path d="M88.3812 63.443C87.7092 63.443 87.0876 63.3338 86.5164 63.1154C85.9536 62.8886 85.4622 62.5736 85.0422 62.1704C84.6306 61.7588 84.3072 61.28 84.072 60.734C83.8368 60.188 83.7192 59.5874 83.7192 58.9322C83.7192 58.277 83.8368 57.6764 84.072 57.1304C84.3072 56.5844 84.6348 56.1098 85.0548 55.7066C85.4748 55.295 85.9662 54.98 86.529 54.7616C87.1002 54.5348 87.7218 54.4214 88.3938 54.4214C89.0742 54.4214 89.7 54.539 90.2712 54.7742C90.8508 55.001 91.3422 55.3412 91.7454 55.7948L90.9264 56.5886C90.5904 56.2358 90.2124 55.9754 89.7924 55.8074C89.3724 55.631 88.923 55.5428 88.4442 55.5428C87.9486 55.5428 87.4866 55.6268 87.0582 55.7948C86.6382 55.9628 86.2728 56.198 85.962 56.5004C85.6512 56.8028 85.4076 57.164 85.2312 57.584C85.0632 57.9956 84.9792 58.445 84.9792 58.9322C84.9792 59.4194 85.0632 59.873 85.2312 60.293C85.4076 60.7046 85.6512 61.0616 85.962 61.364C86.2728 61.6664 86.6382 61.9016 87.0582 62.0696C87.4866 62.2376 87.9486 62.3216 88.4442 62.3216C88.923 62.3216 89.3724 62.2376 89.7924 62.0696C90.2124 61.8932 90.5904 61.6244 90.9264 61.2632L91.7454 62.057C91.3422 62.5106 90.8508 62.855 90.2712 63.0902C89.7 63.3254 89.07 63.443 88.3812 63.443Z" fill="#FDFFFC"/>
<path d="M97.0381 63.3422L101.032 54.5222H102.28L106.286 63.3422H104.964L101.398 55.2278H101.902L98.3359 63.3422H97.0381ZM98.7391 61.1372L99.0793 60.1292H104.044L104.409 61.1372H98.7391Z" fill="#FDFFFC"/>
<path d="M112.642 63.3422V54.5222H113.902V62.246H118.678V63.3422H112.642Z" fill="#FDFFFC"/>
<path d="M136.158 63.443C135.486 63.443 134.843 63.3422 134.23 63.1406C133.617 62.9306 133.134 62.6618 132.781 62.3342L133.247 61.3514C133.583 61.6454 134.011 61.889 134.532 62.0822C135.053 62.2754 135.595 62.372 136.158 62.372C136.67 62.372 137.086 62.3132 137.405 62.1956C137.724 62.078 137.959 61.9184 138.111 61.7168C138.262 61.5068 138.337 61.2716 138.337 61.0112C138.337 60.7088 138.237 60.4652 138.035 60.2804C137.842 60.0956 137.586 59.9486 137.266 59.8394C136.956 59.7218 136.611 59.621 136.233 59.537C135.855 59.453 135.473 59.3564 135.087 59.2472C134.709 59.1296 134.36 58.9826 134.041 58.8062C133.73 58.6298 133.478 58.3946 133.285 58.1006C133.092 57.7982 132.995 57.4118 132.995 56.9414C132.995 56.4878 133.113 56.072 133.348 55.694C133.591 55.3076 133.961 55.001 134.457 54.7742C134.961 54.539 135.599 54.4214 136.372 54.4214C136.884 54.4214 137.392 54.4886 137.896 54.623C138.4 54.7574 138.837 54.9506 139.207 55.2026L138.791 56.2106C138.413 55.9586 138.014 55.778 137.594 55.6688C137.174 55.5512 136.767 55.4924 136.372 55.4924C135.876 55.4924 135.469 55.5554 135.15 55.6814C134.83 55.8074 134.595 55.9754 134.444 56.1854C134.301 56.3954 134.23 56.6306 134.23 56.891C134.23 57.2018 134.326 57.4496 134.52 57.6344C134.721 57.8192 134.977 57.9662 135.288 58.0754C135.607 58.1846 135.956 58.2854 136.334 58.3778C136.712 58.4618 137.09 58.5584 137.468 58.6676C137.854 58.7768 138.203 58.9196 138.514 59.096C138.833 59.2724 139.089 59.5076 139.282 59.8016C139.476 60.0956 139.572 60.4736 139.572 60.9356C139.572 61.3808 139.45 61.7966 139.207 62.183C138.963 62.561 138.585 62.8676 138.073 63.1028C137.569 63.3296 136.93 63.443 136.158 63.443Z" fill="#FDFFFC"/>
<path d="M150.435 63.443C149.763 63.443 149.137 63.3296 148.557 63.1028C147.986 62.876 147.49 62.561 147.07 62.1578C146.65 61.7462 146.323 61.2674 146.088 60.7214C145.852 60.1754 145.735 59.579 145.735 58.9322C145.735 58.2854 145.852 57.689 146.088 57.143C146.323 56.597 146.65 56.1224 147.07 55.7192C147.49 55.3076 147.986 54.9884 148.557 54.7616C149.128 54.5348 149.754 54.4214 150.435 54.4214C151.107 54.4214 151.724 54.5348 152.287 54.7616C152.858 54.98 153.354 55.295 153.774 55.7066C154.202 56.1098 154.53 56.5844 154.756 57.1304C154.992 57.6764 155.109 58.277 155.109 58.9322C155.109 59.5874 154.992 60.188 154.756 60.734C154.53 61.28 154.202 61.7588 153.774 62.1704C153.354 62.5736 152.858 62.8886 152.287 63.1154C151.724 63.3338 151.107 63.443 150.435 63.443ZM150.435 62.3216C150.922 62.3216 151.371 62.2376 151.783 62.0696C152.203 61.9016 152.564 61.6664 152.866 61.364C153.177 61.0532 153.417 60.692 153.585 60.2804C153.761 59.8688 153.849 59.4194 153.849 58.9322C153.849 58.445 153.761 57.9956 153.585 57.584C153.417 57.1724 153.177 56.8154 152.866 56.513C152.564 56.2022 152.203 55.9628 151.783 55.7948C151.371 55.6268 150.922 55.5428 150.435 55.5428C149.939 55.5428 149.481 55.6268 149.061 55.7948C148.65 55.9628 148.288 56.2022 147.978 56.513C147.667 56.8154 147.423 57.1724 147.247 57.584C147.079 57.9956 146.995 58.445 146.995 58.9322C146.995 59.4194 147.079 59.8688 147.247 60.2804C147.423 60.692 147.667 61.0532 147.978 61.364C148.288 61.6664 148.65 61.9016 149.061 62.0696C149.481 62.2376 149.939 62.3216 150.435 62.3216Z" fill="#FDFFFC"/>
<path d="M162.075 63.3422V54.5222H163.335V62.246H168.11V63.3422H162.075Z" fill="#FDFFFC"/>
<path d="M178.103 63.443C176.943 63.443 176.032 63.1112 175.368 62.4476C174.705 61.784 174.373 60.8138 174.373 59.537V54.5222H175.633V59.4866C175.633 60.4694 175.847 61.1876 176.276 61.6412C176.712 62.0948 177.326 62.3216 178.115 62.3216C178.913 62.3216 179.526 62.0948 179.955 61.6412C180.392 61.1876 180.61 60.4694 180.61 59.4866V54.5222H181.832V59.537C181.832 60.8138 181.5 61.784 180.837 62.4476C180.182 63.1112 179.27 63.443 178.103 63.443Z" fill="#FDFFFC"/>
<path d="M191.047 63.3422V55.6184H188.023V54.5222H195.318V55.6184H192.294V63.3422H191.047Z" fill="#FDFFFC"/>
<path d="M201.731 63.3422V54.5222H202.991V63.3422H201.731Z" fill="#FDFFFC"/>
<path d="M214.653 63.443C213.981 63.443 213.355 63.3296 212.775 63.1028C212.204 62.876 211.709 62.561 211.289 62.1578C210.869 61.7462 210.541 61.2674 210.306 60.7214C210.071 60.1754 209.953 59.579 209.953 58.9322C209.953 58.2854 210.071 57.689 210.306 57.143C210.541 56.597 210.869 56.1224 211.289 55.7192C211.709 55.3076 212.204 54.9884 212.775 54.7616C213.347 54.5348 213.972 54.4214 214.653 54.4214C215.325 54.4214 215.942 54.5348 216.505 54.7616C217.076 54.98 217.572 55.295 217.992 55.7066C218.42 56.1098 218.748 56.5844 218.975 57.1304C219.21 57.6764 219.327 58.277 219.327 58.9322C219.327 59.5874 219.21 60.188 218.975 60.734C218.748 61.28 218.42 61.7588 217.992 62.1704C217.572 62.5736 217.076 62.8886 216.505 63.1154C215.942 63.3338 215.325 63.443 214.653 63.443ZM214.653 62.3216C215.14 62.3216 215.589 62.2376 216.001 62.0696C216.421 61.9016 216.782 61.6664 217.085 61.364C217.395 61.0532 217.635 60.692 217.803 60.2804C217.979 59.8688 218.067 59.4194 218.067 58.9322C218.067 58.445 217.979 57.9956 217.803 57.584C217.635 57.1724 217.395 56.8154 217.085 56.513C216.782 56.2022 216.421 55.9628 216.001 55.7948C215.589 55.6268 215.14 55.5428 214.653 55.5428C214.157 55.5428 213.699 55.6268 213.279 55.7948C212.868 55.9628 212.507 56.2022 212.196 56.513C211.885 56.8154 211.641 57.1724 211.465 57.584C211.297 57.9956 211.213 58.445 211.213 58.9322C211.213 59.4194 211.297 59.8688 211.465 60.2804C211.641 60.692 211.885 61.0532 212.196 61.364C212.507 61.6664 212.868 61.9016 213.279 62.0696C213.699 62.2376 214.157 62.3216 214.653 62.3216Z" fill="#FDFFFC"/>
<path d="M226.293 63.3422V54.5222H227.326L233.16 61.7672H232.618V54.5222H233.878V63.3422H232.845L227.011 56.0972H227.553V63.3422H226.293Z" fill="#FDFFFC"/>
<path d="M244.129 63.443C243.457 63.443 242.814 63.3422 242.201 63.1406C241.588 62.9306 241.105 62.6618 240.752 62.3342L241.218 61.3514C241.554 61.6454 241.983 61.889 242.503 62.0822C243.024 62.2754 243.566 62.372 244.129 62.372C244.641 62.372 245.057 62.3132 245.376 62.1956C245.695 62.078 245.931 61.9184 246.082 61.7168C246.233 61.5068 246.309 61.2716 246.309 61.0112C246.309 60.7088 246.208 60.4652 246.006 60.2804C245.813 60.0956 245.557 59.9486 245.238 59.8394C244.927 59.7218 244.582 59.621 244.204 59.537C243.826 59.453 243.444 59.3564 243.058 59.2472C242.68 59.1296 242.331 58.9826 242.012 58.8062C241.701 58.6298 241.449 58.3946 241.256 58.1006C241.063 57.7982 240.966 57.4118 240.966 56.9414C240.966 56.4878 241.084 56.072 241.319 55.694C241.563 55.3076 241.932 55.001 242.428 54.7742C242.932 54.539 243.57 54.4214 244.343 54.4214C244.855 54.4214 245.364 54.4886 245.868 54.623C246.372 54.7574 246.808 54.9506 247.178 55.2026L246.762 56.2106C246.384 55.9586 245.985 55.778 245.565 55.6688C245.145 55.5512 244.738 55.4924 244.343 55.4924C243.847 55.4924 243.44 55.5554 243.121 55.6814C242.802 55.8074 242.566 55.9754 242.415 56.1854C242.272 56.3954 242.201 56.6306 242.201 56.891C242.201 57.2018 242.298 57.4496 242.491 57.6344C242.692 57.8192 242.949 57.9662 243.259 58.0754C243.579 58.1846 243.927 58.2854 244.305 58.3778C244.683 58.4618 245.061 58.5584 245.439 58.6676C245.826 58.7768 246.174 58.9196 246.485 59.096C246.804 59.2724 247.06 59.5076 247.254 59.8016C247.447 60.0956 247.543 60.4736 247.543 60.9356C247.543 61.3808 247.422 61.7966 247.178 62.183C246.934 62.561 246.556 62.8676 246.044 63.1028C245.54 63.3296 244.902 63.443 244.129 63.443Z" fill="#FDFFFC"/>
<path d="M0 30.7524H3.4518V7.322H0V0.7322H16.0561C17.7994 0.7322 19.3336 0.976267 20.6585 1.4644C22.0183 1.95253 23.1515 2.615 24.058 3.4518C24.9994 4.2886 25.6967 5.29973 26.15 6.4852C26.6381 7.6358 26.8822 8.891 26.8822 10.2508V10.8784C26.8822 12.9704 26.2895 14.644 25.104 15.8992C23.9534 17.1544 22.489 18.0261 20.7108 18.5142V19.4556C22.489 19.9437 23.9534 20.8328 25.104 22.1229C26.2895 23.3781 26.8822 25.0517 26.8822 27.1437V27.7713C26.8822 29.1311 26.6381 30.4037 26.15 31.5892C25.6967 32.7398 24.9994 33.7509 24.058 34.6226C23.1515 35.4594 22.0183 36.1219 20.6585 36.61C19.3336 37.0981 17.7994 37.3422 16.0561 37.3422H0V30.7524ZM10.3554 30.7524H15.3762C16.8406 30.7524 18.0261 30.4386 18.9326 29.811C19.8391 29.1834 20.2924 28.1374 20.2924 26.673V26.3592C20.2924 24.8948 19.8391 23.8488 18.9326 23.2212C18.0261 22.5936 16.8406 22.2798 15.3762 22.2798H10.3554V30.7524ZM10.3554 15.69H15.3762C16.8406 15.69 18.0261 15.3936 18.9326 14.8009C19.8391 14.1733 20.2924 13.1273 20.2924 11.6629V11.3491C20.2924 9.8847 19.8391 8.85613 18.9326 8.2634C18.0261 7.6358 16.8406 7.322 15.3762 7.322H10.3554V15.69Z" fill="#011627"/>
<path d="M51.2699 11.4014H57.8597V43.7228C57.8597 44.9083 57.4762 45.8845 56.7091 46.6516C55.9769 47.4187 55.0181 47.8022 53.8326 47.8022H38.4041V41.5262H49.8578C50.7992 41.5262 51.2699 41.0032 51.2699 39.9572V33.5766H50.3285C49.1779 36.5751 46.7024 38.0744 42.9019 38.0744C41.6119 38.0744 40.409 37.8652 39.2932 37.4468C38.1775 37.0284 37.2012 36.3834 36.3644 35.5117C35.5276 34.64 34.8652 33.5592 34.377 32.2691C33.9238 30.9442 33.6971 29.3926 33.6971 27.6144V11.4014H40.2869V26.2546C40.2869 28.1025 40.7228 29.5495 41.5944 30.5955C42.4661 31.6066 43.7736 32.1122 45.5169 32.1122C47.5043 32.1122 48.9513 31.4846 49.8578 30.2294C50.7992 28.9393 51.2699 27.196 51.2699 24.9994V11.4014Z" fill="#011627"/>
<path d="M64.9885 11.4014H72.6766V0.7322H79.2664V11.4014H88.6281V17.6774H79.2664V29.4972C79.2664 30.5432 79.7371 31.0662 80.6785 31.0662H87.6867V37.3422H76.7037C75.5182 37.3422 74.5419 36.9587 73.7749 36.1916C73.0427 35.4245 72.6766 34.4483 72.6766 33.2628V17.6774H64.9885V11.4014Z" fill="#011627"/>
<path d="M103.549 26.5161C103.584 27.2832 103.759 27.9979 104.073 28.6604C104.421 29.288 104.874 29.8459 105.432 30.334C106.025 30.7873 106.688 31.1534 107.42 31.4323C108.187 31.6764 108.989 31.7984 109.826 31.7984C111.464 31.7984 112.719 31.5195 113.591 30.9616C114.463 30.3689 115.09 29.6715 115.474 28.8696L121.122 32.0076C120.809 32.6701 120.373 33.3674 119.815 34.0996C119.257 34.7969 118.525 35.442 117.618 36.0347C116.747 36.6274 115.666 37.1156 114.376 37.4991C113.12 37.8826 111.639 38.0744 109.93 38.0744C107.978 38.0744 106.199 37.7606 104.596 37.133C102.992 36.5054 101.597 35.5989 100.411 34.4134C99.2609 33.2279 98.3544 31.781 97.6919 30.0725C97.0643 28.364 96.7505 26.4289 96.7505 24.2672V23.9534C96.7505 21.966 97.0817 20.1529 97.7442 18.5142C98.4415 16.8755 99.3829 15.4808 100.568 14.3302C101.754 13.1796 103.131 12.2905 104.7 11.6629C106.304 11.0004 108.012 10.6692 109.826 10.6692C112.057 10.6692 113.975 11.0702 115.579 11.8721C117.182 12.6392 118.507 13.6329 119.553 14.8532C120.599 16.0387 121.366 17.3636 121.855 18.828C122.343 20.2575 122.587 21.6522 122.587 23.012V26.5161H103.549ZM109.773 16.6314C108.1 16.6314 106.74 17.0672 105.694 17.9389C104.648 18.7757 103.968 19.752 103.654 20.8677H115.892C115.683 19.6474 115.021 18.6362 113.905 17.8343C112.824 17.0324 111.447 16.6314 109.773 16.6314Z" fill="#011627"/>
<path d="M128.669 33.2628H131.807V4.8116H128.669V0.7322H143.47C145.214 0.7322 146.748 0.976267 148.073 1.4644C149.433 1.95253 150.566 2.615 151.472 3.4518C152.414 4.2886 153.111 5.29973 153.564 6.4852C154.052 7.6358 154.296 8.891 154.296 10.2508V10.8784C154.296 11.8895 154.14 12.8135 153.826 13.6503C153.512 14.4871 153.076 15.2367 152.518 15.8992C151.96 16.5617 151.298 17.137 150.531 17.6251C149.799 18.0784 148.997 18.427 148.125 18.6711V19.2987C149.868 19.7868 151.333 20.7282 152.518 22.1229C153.704 23.4827 154.296 25.1563 154.296 27.1437V27.7713C154.296 29.1311 154.052 30.4037 153.564 31.5892C153.111 32.7398 152.414 33.7509 151.472 34.6226C150.566 35.4594 149.433 36.1219 148.073 36.61C146.748 37.0981 145.214 37.3422 143.47 37.3422H128.669V33.2628ZM136.201 33.2628H143.157C145.214 33.2628 146.887 32.7572 148.177 31.7461C149.467 30.7001 150.112 29.2706 150.112 27.4575V27.1437C150.112 25.2609 149.502 23.7791 148.282 22.6982C147.062 21.5825 145.405 21.0246 143.313 21.0246H136.201V33.2628ZM136.201 16.9452H143.313C145.405 16.9452 147.062 16.4048 148.282 15.3239C149.502 14.243 150.112 12.7612 150.112 10.8784V10.5646C150.112 8.7864 149.467 7.39173 148.177 6.3806C146.887 5.3346 145.214 4.8116 143.157 4.8116H136.201V16.9452Z" fill="#FDFFFC"/>
<path d="M170.316 3.661C170.316 2.64987 170.665 1.79563 171.362 1.0983C172.094 0.3661 172.966 0 173.977 0C174.988 0 175.843 0.3661 176.54 1.0983C177.272 1.79563 177.638 2.64987 177.638 3.661C177.638 4.67213 177.272 5.5438 176.54 6.276C175.843 6.97333 174.988 7.322 173.977 7.322C172.966 7.322 172.094 6.97333 171.362 6.276C170.665 5.5438 170.316 4.67213 170.316 3.661ZM162.89 33.5766H171.99V15.167H163.831V11.4014H176.069V33.5766H184.542V37.3422H162.89V33.5766Z" fill="white"/>
<path d="M193.396 11.4014H201.555V0.7322H205.635V11.4014H215.676V15.167H205.635V32.0076C205.635 33.0536 206.105 33.5766 207.047 33.5766H214.421V37.3422H205.582C204.397 37.3422 203.421 36.9587 202.654 36.1916C201.921 35.4245 201.555 34.4483 201.555 33.2628V15.167H193.396V11.4014Z" fill="white"/>
<path d="M231.696 18.0958C231.696 19.351 232.219 20.3098 233.265 20.9723C234.346 21.6348 236.298 22.0706 239.123 22.2798C242.156 22.5239 244.457 23.2561 246.026 24.4764C247.63 25.6619 248.432 27.4052 248.432 29.7064V30.0202C248.432 31.2754 248.17 32.4086 247.647 33.4197C247.159 34.396 246.462 35.2328 245.555 35.9301C244.684 36.6274 243.603 37.1504 242.313 37.4991C241.058 37.8826 239.68 38.0744 238.181 38.0744C236.159 38.0744 234.416 37.8129 232.951 37.2899C231.522 36.732 230.319 36.0173 229.342 35.1456C228.401 34.2391 227.686 33.2279 227.198 32.1122C226.71 30.9616 226.431 29.811 226.361 28.6604L230.232 27.719C230.406 29.7064 231.173 31.3103 232.533 32.5306C233.893 33.7161 235.706 34.3088 237.972 34.3088C239.89 34.3088 241.424 33.9427 242.574 33.2105C243.76 32.4434 244.353 31.38 244.353 30.0202C244.353 28.5558 243.777 27.5098 242.627 26.8822C241.476 26.2546 239.611 25.8536 237.031 25.6793C234.032 25.4701 231.731 24.7728 230.127 23.5873C228.523 22.4018 227.721 20.6759 227.721 18.4096V18.0958C227.721 16.8755 227.983 15.812 228.506 14.9055C229.029 13.9641 229.726 13.1796 230.598 12.552C231.504 11.9244 232.515 11.4537 233.631 11.1399C234.747 10.8261 235.915 10.6692 237.135 10.6692C238.844 10.6692 240.343 10.9133 241.633 11.4014C242.923 11.8547 244.004 12.4648 244.876 13.2319C245.747 13.9641 246.41 14.8183 246.863 15.7946C247.351 16.7709 247.665 17.7471 247.804 18.7234L243.934 19.6648C243.76 17.9912 243.08 16.6837 241.894 15.7423C240.744 14.8009 239.227 14.3302 237.344 14.3302C236.612 14.3302 235.897 14.4174 235.2 14.5917C234.538 14.7312 233.945 14.9578 233.422 15.2716C232.899 15.5854 232.48 15.9864 232.167 16.4745C231.853 16.9278 231.696 17.4682 231.696 18.0958Z" fill="#FDFFFC"/>
</svg>
