<svg xmlns="http://www.w3.org/2000/svg" width="373" height="463" fill="none"><g clip-path="url(#a)"><path fill="#232323" d="M231.394 158.777s-47.885-9.262-50.284 3.43c-2.541 13.429 50.284-3.43 50.284-3.43Zm51.651-6.041c15.811-9.26 64.532-25.759 72.918-8.525 6.435 13.215-59.41 10.661-72.918 8.525Z"/><path fill="#fff" d="M231.661 87.154c-23.943-4.722-46.848 60.771-47.658 80.38-.652 15.865 10.517 35.958 26.68 30.342 24.262-8.44 39.04-107.163 20.978-110.722Z"/><path fill="#232323" d="M205.219 199.516a17.226 17.226 0 0 0 5.683-.996c4.446-1.547 8.749-5.993 12.79-13.22 3.548-6.343 6.868-14.868 9.602-24.656 5.213-18.651 7.901-40.364 6.841-55.303-.561-7.96-2.465-17.698-8.351-18.858-4.533-.894-9.255.562-14.044 4.321-11.05 8.694-19.745 27.454-23.947 37.863-5.817 14.402-10.134 30.383-10.469 38.837-.456 11.075 4.627 23.117 12.085 28.63 3.033 2.247 6.358 3.382 9.81 3.382Zm26.31-111.693c3.929.775 6.503 7.03 7.249 17.614 2.116 30.085-10.813 85.705-28.328 91.796-5.017 1.742-9.933.985-14.231-2.195-7.117-5.263-11.965-16.832-11.529-27.477.342-8.318 4.608-24.11 10.373-38.385 4.15-10.283 12.728-28.803 23.534-37.302 4.458-3.506 8.811-4.873 12.932-4.058v.007Z"/><path fill="#fff" d="M241.122 78.986c-39.18-12.221-59.942 81.035-60.017 83.221 2.148-4.233 29.135-3.846 50.285-3.43 12.772-17.887 23.68-73.058 9.732-79.791Z"/><path fill="#232323" d="M181.11 162.889a.677.677 0 0 0 .611-.373c.456-.909 3.345-2.531 17.432-3.086 9.466-.373 21.111-.189 32.228.029a.667.667 0 0 0 .572-.286c5.071-7.106 10.033-20.164 13.244-34.926 3.354-15.376 4.052-28.975 1.913-37.302-1.14-4.41-3.044-7.293-5.685-8.569a.763.763 0 0 0-.093-.036c-7.571-2.361-15-1.021-22.078 3.985-13.267 9.382-23.072 30.208-28.959 46.025-6.515 17.514-9.835 32.902-9.867 33.839a.682.682 0 0 0 .513.682.684.684 0 0 0 .169.018Zm30.692-5.035c-15.777 0-25.783.657-29.666 2.618.978-4.55 4.084-17.367 9.6-32.092 5.878-15.694 15.633-36.274 28.731-45.243 6.567-4.5 13.433-5.686 20.413-3.523 2.239 1.103 3.89 3.68 4.912 7.656 4.533 17.7-4.741 56.447-14.747 70.811-7.151-.132-13.57-.227-19.243-.227Zm76.522 224.595c7.632-12.389 16.789-21.954 21.863-41.396 4.654-17.844 13.296-19.73 17.934-15.649 5.553 4.881 6.862 27.485-39.797 57.045Z"/><path fill="#fff" d="M286.353 381.58c10.376 4.622 27.558 11.007 38.38 14.557l8.01-14.468s.539-12.157-1.368-15.603c-9.146-5.402-20.187-13.295-27.149-18.82.009-.009-14.452 21.608-17.873 34.334Z"/><path fill="#232323" d="M324.733 396.824a.686.686 0 0 0 .6-.352l8.008-14.482a.673.673 0 0 0 .084-.301c.023-.502.527-12.389-1.441-15.96a.665.665 0 0 0-.251-.259c-9.255-5.459-20.265-13.366-27.071-18.768a.697.697 0 0 0-.532-.139.686.686 0 0 0-.462.296c-.037.053-3.676 5.502-7.683 12.435-5.395 9.326-8.858 16.773-10.293 22.109a.684.684 0 0 0 .383.798c10.474 4.668 27.772 11.082 38.443 14.589.07.023.142.034.215.034Zm7.333-15.353-7.657 13.845c-10.489-3.471-26.937-9.573-37.239-14.122 3.265-11.323 14.895-29.399 17.227-32.959 6.841 5.377 17.456 12.965 26.47 18.308 1.375 2.83 1.338 11.539 1.199 14.928Z"/><path fill="#D9C6F4" d="M306.285 389.596c6.695 2.513 13.454 4.92 18.448 6.546l8.01-14.473-.704-15.708a338.281 338.281 0 0 1-9.785-6.059l-15.969 29.694Z"/><path fill="#fff" d="m328.229 363.655-15.575 28.297c-.65-.227-1.306-.475-1.965-.718l15.779-28.66c.584.354 1.171.714 1.761 1.081Z"/><path fill="#232323" d="M324.733 396.824a.686.686 0 0 0 .6-.352l8.008-14.482a.673.673 0 0 0 .084-.301c.023-.502.527-12.389-1.441-15.96a.665.665 0 0 0-.251-.259c-9.255-5.459-20.265-13.366-27.071-18.768a.697.697 0 0 0-.532-.139.686.686 0 0 0-.462.296c-.037.053-3.676 5.502-7.683 12.435-5.395 9.326-8.858 16.773-10.293 22.109a.684.684 0 0 0 .383.798c10.474 4.668 27.772 11.082 38.443 14.589.07.023.142.034.215.034Zm7.333-15.353-7.657 13.845c-10.489-3.471-26.937-9.573-37.239-14.122 3.265-11.323 14.895-29.399 17.227-32.959 6.841 5.377 17.456 12.965 26.47 18.308 1.375 2.83 1.338 11.539 1.199 14.928Z"/><path fill="#232323" d="M237.727 400.054c12.646.435 25.562-.371 47.755-17.389 11.34-8.693 22.026-10.215 23.551-2.172 2.429 12.794-22.679 28.698-71.306 19.561Z"/><path fill="#fff" d="M237.971 398.685c2.394 8.322 5.554 20.38 9.577 29.478l16.336.148 11.558-10.434c-.738-9.034-.971-24.658-1.308-33.253l-36.163 14.061Z"/><path fill="#232323" d="M263.893 428.993a.685.685 0 0 0 .456-.177l11.559-10.434a.685.685 0 0 0 .228-.561c-.511-6.258-.778-15.558-1.011-23.765-.1-3.514-.193-6.824-.296-9.46a.677.677 0 0 0-.31-.543.688.688 0 0 0-.623-.066l-36.174 14.059a.682.682 0 0 0-.41.825c.351 1.215.716 2.502 1.099 3.867 2.253 7.961 5.057 17.889 8.519 25.702a.68.68 0 0 0 .62.405l16.336.15.007-.002Zm10.849-11.386-11.109 10.031-15.627-.144c-3.343-7.66-6.074-17.325-8.28-25.115a534.226 534.226 0 0 0-.928-3.273l34.704-13.5c.089 2.45.173 5.393.26 8.489.223 8.077.483 17.214.98 23.512Z"/><path fill="#D9C6F4" d="M240.5 408.643c1.723 5.35 3.954 12.439 6.715 18.751.112.257.228.512.342.769l16.336.148 11.994-10.217c-.264-3.16-.529-7.475-.768-11.953l-34.619 2.502Z"/><path fill="#fff" d="M275.543 413.374c-7.37.405-23.487 1.654-32.74 2.315-.242-.682-.475-1.364-.703-2.017 9.146-.657 25.754-1.943 33.313-2.359.043.703.086 1.392.13 2.061Z"/><path fill="#232323" d="M263.893 428.993a.685.685 0 0 0 .456-.177l11.559-10.434a.685.685 0 0 0 .228-.561c-.511-6.258-.778-15.558-1.011-23.765-.1-3.514-.193-6.824-.296-9.46a.677.677 0 0 0-.31-.543.688.688 0 0 0-.623-.066l-36.174 14.059a.682.682 0 0 0-.41.825c.351 1.215.716 2.502 1.099 3.867 2.253 7.961 5.057 17.889 8.519 25.702a.68.68 0 0 0 .62.405l16.336.15.007-.002Zm10.849-11.386-11.109 10.031-15.627-.144c-3.343-7.66-6.074-17.325-8.28-25.115a534.226 534.226 0 0 0-.928-3.273l34.704-13.5c.089 2.45.173 5.393.26 8.489.223 8.077.483 17.214.98 23.512Z"/><path fill="#fff" d="M200.67 454.889c2.025 2.411 6.268 5.757 15.157 6.539 16.379 1.442 65.763.698 65.763.698-.946-5.349-1.562-8.834-2.052-11.916l.061.052c-1.279-9.814-3.105-24.565-4.143-32.385-5.888.435-8.467 5.712-13.262 7.443-4.401 1.526-13.162 2.706-19.838 3.487-17.472 2.192-34.25 11.327-41.638 25.991-.03.041-.034.059-.048.091Z"/><path fill="#232323" d="M254.263 462.998c14.503 0 27.088-.187 27.336-.189a.691.691 0 0 0 .652-.51.69.69 0 0 0 .012-.293c-.951-5.379-1.528-8.643-2.005-11.6a.595.595 0 0 0 .014-.241c-.591-4.549-1.304-10.17-1.993-15.613a3818.83 3818.83 0 0 0-2.15-16.775.687.687 0 0 0-.728-.589c-3.662.269-6.083 2.275-8.425 4.208-1.615 1.333-3.14 2.595-5.017 3.273-3.368 1.169-9.805 2.298-19.692 3.451-9.001 1.137-17.6 4.039-24.874 8.416-7.753 4.658-13.725 10.865-17.295 17.95-.012.021-.019.041-.028.062l-.023.059c-.052.117-.07.246-.052.372.017.127.07.246.153.344 4.052 4.825 10.731 6.349 15.622 6.781 8.049.714 24.212.894 38.493.894Zm26.513-1.545c-6.458.089-49.874.617-64.89-.705-8.02-.707-12.238-3.562-14.404-5.966 6.877-13.306 22.526-22.987 40.947-25.297 9.976-1.165 16.513-2.316 19.986-3.521 2.112-.762 3.799-2.159 5.432-3.508 2.123-1.756 4.136-3.412 7.014-3.83.547 4.165 1.284 9.974 2.052 16.106.673 5.318 1.368 10.811 1.952 15.296a.657.657 0 0 0-.016.289c.474 2.898 1.024 6.03 1.927 11.136Z"/><path fill="#232323" d="M202.462 451.591c14.108 10.026 30.702 4.76 38.881 1.378 7.053-2.92 9.383.851 15.137-.969 8.952-4.294 12.885-9.487 23.115-1.74-1.28-9.812-3.106-24.565-4.144-32.385-5.887.435-8.466 5.714-13.262 7.443-4.401 1.528-13.161 2.709-19.838 3.489-17.524 2.552-30.645 9.43-39.889 22.784Z"/><path fill="#fff" d="M277.472 440.152a4.8 4.8 0 0 0 .438-.016.611.611 0 0 0 .419-.222.62.62 0 0 0 .115-.213.611.611 0 0 0-.412-.773c-.078-.024-.16-.032-.241-.024-.036 0-3.803.302-8.512-3.035a74.886 74.886 0 0 1-2.643-1.981c-2.916-2.261-4.522-3.507-10.387-4.285a.62.62 0 0 0-.584.984.62.62 0 0 0 .409.242c5.532.735 6.952 1.835 9.787 4.033.761.591 1.626 1.26 2.686 2.013 4.223 2.986 7.723 3.277 8.925 3.277Z"/><path fill="#232323" d="M221.316 457.923c.934 0 1.883-.033 2.845-.1 5.432-.38 11.279-1.854 17.381-4.378 3.876-1.593 6.384-1.249 8.822-.91 1.861.261 3.783.534 6.157-.155 2.228-.646 3.648-1.692 5.016-2.702 1.706-1.26 3.318-2.45 6.476-2.934 5.414-.824 11.039 3.289 11.094 3.332a.522.522 0 0 0 .812-.289.523.523 0 0 0-.058-.39.523.523 0 0 0-.136-.149c-.244-.182-6.032-4.415-11.858-3.523-3.42.521-5.206 1.844-6.936 3.123-1.368 1.001-2.639 1.947-4.688 2.543-2.153.625-3.877.382-5.715.123-2.449-.348-5.226-.74-9.365.973-5.997 2.482-11.737 3.928-17.056 4.301-8.1.567-15.278-1.326-21.326-5.625a.518.518 0 0 0-.576.86c5.506 3.924 11.93 5.9 19.111 5.9Z"/><path fill="#232323" d="M264.139 451.709c1.309-.755 3.033-1.171 4.85-1.171h.059c1.843 0 3.583.455 4.901 1.219 1.42.842 2.2 1.988 2.193 3.232-.006 1.244-.798 2.384-2.227 3.21-1.309.755-3.031 1.169-4.851 1.169h-.059c-1.842 0-3.582-.442-4.898-1.22-1.423-.839-2.2-1.985-2.196-3.229.005-1.245.798-2.384 2.228-3.21Zm-.965 3.216c0 .778.557 1.538 1.578 2.141 1.125.664 2.639 1.035 4.26 1.044h.055c1.596 0 3.096-.357 4.216-1.003 1.026-.592 1.596-1.347 1.596-2.125s-.556-1.537-1.576-2.14c-1.126-.666-2.638-1.035-4.259-1.044h-.055c-1.596 0-3.096.355-4.216 1.001-1.026.593-1.594 1.349-1.599 2.126Z"/><path fill="#D9C6F4" d="M247.005 442.581a1.55 1.55 0 0 0 1.551-1.551 1.545 1.545 0 0 0-.121-.593c-.151-.362-3.829-8.871-13.766-12.349a1.571 1.571 0 0 0-1.215.025 1.55 1.55 0 0 0-.755 2.099 1.544 1.544 0 0 0 .921.79h.02c8.597 3.011 11.901 10.554 11.933 10.629a1.549 1.549 0 0 0 1.432.95Zm-7.37 2.359a1.55 1.55 0 0 0 1.421-2.168c-.162-.366-4.059-8.986-14.272-11.966a1.554 1.554 0 0 0-1.939 1.024 1.543 1.543 0 0 0 1.026 1.933l.042.014c8.785 2.563 12.267 10.167 12.313 10.235a1.558 1.558 0 0 0 1.409.928Zm-8.448 1.745a1.555 1.555 0 0 0 1.55-1.552 1.5 1.5 0 0 0-.146-.648c-.148-.318-3.739-7.792-13.063-10.392a1.555 1.555 0 0 0-1.912 1.072 1.547 1.547 0 0 0 1.075 1.907c7.906 2.204 11.057 8.66 11.089 8.726a1.554 1.554 0 0 0 1.407.887Z"/><path fill="#fff" d="M323.036 448.859c3.126-.427 8.225-2.229 13.618-9.312 9.942-13.056 35.572-55.128 35.572-55.128-5.048-2.047-8.334-3.382-11.216-4.604l.077-.025c-9.016-4.142-22.524-10.463-29.714-13.733-2.764 5.202.347 10.183-.734 15.15-1.045 4.527-4.705 12.549-7.596 18.606-7.445 16.068-8.617 34.771-.08 48.964.022.03.047.057.073.082Z"/><path fill="#232323" d="M323.036 449.542a.706.706 0 0 0 .092 0c6.254-.853 11.104-5.687 14.071-9.576 9.849-12.94 35.367-54.771 35.623-55.192a.688.688 0 0 0 .065-.569.674.674 0 0 0-.392-.418c-5.085-2.063-8.167-3.317-10.911-4.474a.621.621 0 0 0-.2-.141 4420.448 4420.448 0 0 1-14.318-6.624 3305.89 3305.89 0 0 0-15.397-7.112.684.684 0 0 0-.889.302c-1.719 3.235-1.306 6.344-.912 9.349.276 2.072.536 4.03.112 5.975-.798 3.462-3.268 9.501-7.546 18.458-8.145 17.577-8.163 36.122-.048 49.608a.492.492 0 0 0 .037.056c.018.028.034.046.05.066a.68.68 0 0 0 .563.292Zm48.198-64.793c-3.361 5.497-26.011 42.418-35.116 54.384-4.866 6.394-9.538 8.434-12.733 8.982-7.698-13.074-7.6-30.99.283-48.022 4.319-9.039 6.82-15.169 7.641-18.738.477-2.186.189-4.353-.089-6.45-.36-2.73-.702-5.309.479-7.961 3.831 1.751 9.158 4.221 14.783 6.823 4.873 2.261 9.91 4.597 14.028 6.49a.663.663 0 0 0 .228.168c2.707 1.16 5.667 2.365 10.496 4.324Z"/><path fill="#232323" d="M321.187 445.584c16.023-6.571 20.381-23.376 21.859-32.071 1.272-7.506 5.716-7.468 7.23-13.288 1.116-9.847-1.201-15.922 10.823-20.435-7.017-3.368-25.98-11.914-29.715-13.733-2.848 5.372.545 10.501-.848 15.642-2.857 9.689-13.285 28.366-13.178 38.012-.871 8.748.053 17.873 3.829 25.873Z"/><path fill="#fff" d="M331.603 389.514a.623.623 0 0 0 .479-.228c3.567-4.276 5.261-4.89 8.633-6.114.912-.327 1.936-.7 3.14-1.196 5.804-2.388 7.669-6.005 7.753-6.157a.61.61 0 0 0-.086-.683.617.617 0 0 0-.876-.063.614.614 0 0 0-.148.191c-.028.052-1.781 3.378-7.106 5.568a77.049 77.049 0 0 1-3.092 1.178c-3.47 1.256-5.381 1.949-9.164 6.483a.613.613 0 0 0-.087.66.62.62 0 0 0 .563.356l-.009.005Z"/><path fill="#232323" d="M321.185 446.109a.528.528 0 0 0 .228-.052c7.085-2.914 12.674-8.116 16.614-15.467 2.567-4.777 4.428-10.504 5.529-16.995.701-4.126 2.34-6.06 3.925-7.929 1.213-1.429 2.467-2.907 3.142-5.271.636-2.224.502-3.976.372-5.67-.162-2.111-.315-4.106.955-7.026 2.176-5.004 8.738-7.49 8.804-7.506a.516.516 0 0 0-.362-.967c-.285.107-7.042 2.668-9.393 8.07-1.368 3.157-1.201 5.373-1.037 7.506.13 1.677.251 3.26-.333 5.307-.616 2.149-1.742 3.48-2.937 4.888-1.596 1.883-3.421 4.019-4.157 8.416-1.081 6.396-2.905 12.009-5.413 16.704-3.831 7.14-9.256 12.189-16.127 15.012a.52.52 0 0 0-.311.577.516.516 0 0 0 .508.417l-.007-.014Z"/><path fill="#232323" d="M354.105 393.603c.057-1.526.632-3.218 1.619-4.776.987-1.558 2.28-2.789 3.648-3.485 1.469-.753 2.86-.8 3.913-.134 1.054.667 1.597 1.943 1.54 3.589-.055 1.524-.63 3.216-1.617 4.765-1.583 2.484-3.877 4.095-5.872 4.095h-.041a3.112 3.112 0 0 1-1.642-.471c-1.06-.662-1.607-1.938-1.548-3.583Zm1.263.046c-.043 1.183.297 2.063.956 2.479 1.448.91 4.104-.562 5.81-3.23.869-1.364 1.368-2.832 1.423-4.137.041-1.181-.297-2.061-.956-2.477a1.826 1.826 0 0 0-.962-.273h-.036a3.702 3.702 0 0 0-1.661.455c-1.162.596-2.28 1.676-3.153 3.041-.873 1.365-1.373 2.839-1.425 4.142h.004Z"/><path fill="#D9C6F4" d="M318.298 410.035a1.561 1.561 0 0 0 1.026-.387c6.841-6.009 15.05-5.206 15.132-5.197a1.548 1.548 0 1 0 .344-3.078c-.39-.043-9.634-.991-17.531 5.953a1.547 1.547 0 0 0 1.029 2.709Zm-1.409 8.131a1.55 1.55 0 0 0 1.087-.454c6.574-6.433 14.888-5.716 14.97-5.707a1.554 1.554 0 0 0 1.646-1.397 1.549 1.549 0 0 0-1.347-1.685c-.399-.037-9.851-.853-17.444 6.58a1.545 1.545 0 0 0 1.088 2.652v.011Zm-.648 7.902a1.54 1.54 0 0 0 1.101-.455c5.788-5.802 12.98-5.395 13.05-5.39a1.552 1.552 0 0 0 1.662-1.43 1.547 1.547 0 0 0-1.433-1.657c-.352-.027-8.65-.548-15.477 6.296a1.552 1.552 0 0 0-.329 1.685 1.546 1.546 0 0 0 1.431.953l-.005-.002Z"/><path fill="#00676C" d="M208.831 304.312c3.537 12.576 10.238 24.467 19.328 35.212.843 14.452 3.678 42.925 9.577 60.749 32.763 8.618 63.015-40.601 71.306-19.789-1.525-10.433-3.053-14.785-5.669-21.301 7.929-14.455 11.119-42.057 24.751-33.798-8.396-8.584-28.023-9.237-35.696-8.977-.711-25.841 20.409-66.322 21.305-93.625.506-15.385-4.978-37.633-12.435-52.363-8.87-17.507-73.773 13.272-74.77 12.865-1.986 39.848-31.046 75.104-17.697 121.027Z"/><path fill="#fff" d="M243.094 227.518c1.633-7.028 2.814-12.107 2.946-13.615a.575.575 0 0 1 .834-.458.575.575 0 0 1 .307.556c-.139 1.592-1.266 6.437-2.965 13.774-6.031 25.953-18.582 79.955-16.019 112.047.005.04.005.08 0 .12 0-.141-.018-.282-.025-.418-.417-.494-.83-.992-1.238-1.49-1.981-32.451 10.232-85.004 16.16-110.516Zm47.282 57.974a.518.518 0 0 1 1.035.039c-1.104 29.191 2.828 51.941 12.555 72.524-.146.309-.365.661-.588 1.107-10.108-20.969-14.142-43.898-13.002-73.67Z"/><path fill="#232323" d="m300.229 221.191 3.97-.48-.522-18.19-3.348-.098-.1 18.768Z"/><path fill="#fff" d="M210.676 197.886c-14.042 5.12-64.169 10.037-89.455-26.754-6.216-5.459-15.586-8.427-9.466-9.152 2.201-.262 5.525.313 5.525.313s-1.956-6.951-2.405-12.055c-.45-5.104 1.703-4.894 4.711 1.197-.427-5.35.989-9.781 5.265.53.1-5.78 1.14-8.812 7.963 4.899-.069-4.108.627-6.207 6.218 3.037 5.591 9.243 14.728 14.504 14.728 14.504l30.248-6.871"/><path fill="#232323" d="M185.622 202.091c11.858 0 21.152-2.065 25.289-3.573a.685.685 0 0 0 .408-.876.685.685 0 0 0-.878-.407c-5.701 2.079-21.435 5.232-40.169 2.306-9.6-1.501-18.363-4.392-26.053-8.595a64.476 64.476 0 0 1-22.433-20.209.85.85 0 0 0-.112-.128c-2.405-2.106-5.244-3.832-7.525-5.218-1.429-.871-3.176-1.933-3.621-2.47a5.137 5.137 0 0 1 1.302-.273c2.078-.248 5.298.303 5.329.31a.694.694 0 0 0 .625-.216.68.68 0 0 0 .151-.642c-.019-.068-1.945-6.949-2.383-11.937-.199-2.233.166-2.786.242-2.875.298.041 1.429.91 3.174 4.436a.682.682 0 0 0 .795.355.684.684 0 0 0 .5-.712c-.249-3.128.21-4.757.522-4.961.123.029 1.206.441 3.42 5.804a.689.689 0 0 0 .761.415.691.691 0 0 0 .397-.232.675.675 0 0 0 .16-.431c.062-3.566.511-4.121.628-4.205.262.013 1.648.587 6.038 9.398a.683.683 0 0 0 1.297-.316c-.034-2.036.167-2.62.269-2.788.301.097 1.448.843 4.679 6.189 5.619 9.289 14.594 14.525 14.973 14.743a.682.682 0 0 0 .492.075l30.259-6.86a.681.681 0 0 0-.303-1.33l-29.979 6.798c-1.429-.875-9.31-5.95-14.258-14.132-3.694-6.107-5.128-7.135-6.248-6.823-.602.173-.93.716-1.097 1.562-3.573-6.839-5.178-8.138-6.417-7.858-.882.198-1.313 1.158-1.518 2.704-1.907-3.891-3.056-4.246-3.877-4.053-1.119.268-1.521 1.872-1.619 3.576-.957-1.527-2.225-3.016-3.42-2.68-1.058.294-1.46 1.706-1.229 4.322.353 4.01 1.596 9.048 2.157 11.175-1.193-.155-3.163-.346-4.677-.166-1.218.145-2.374.402-2.57 1.303-.255 1.167 1.279 2.099 4.333 3.96 2.214 1.347 4.964 3.018 7.267 5.024a65.804 65.804 0 0 0 22.855 20.562c7.826 4.279 16.742 7.222 26.497 8.748 5.15.802 10.355 1.204 15.567 1.201Z"/><path fill="#fff" d="M215.298 220.47c28.756 5.429 67.747 2.081 85.202 0l-.171-18.047 10.193 16.584c12.722-.889 20.938-4.112 20.938-4.112-3.102-14.785-58.873-144.93-59.411-143.426-.488 1.364-3.206-1.836-5.16-3.692l-34.204 10.154c-23.74 51.263-20.523 115.406-17.387 142.539Z"/><path fill="#232323" d="M252.776 224.098c3.041 0 6.167-.044 9.379-.13 16.601-.455 31.201-1.961 38.425-2.823a.681.681 0 0 0 .604-.682l-.146-15.583 8.894 14.484a.677.677 0 0 0 .631.323c12.681-.885 21.056-4.124 21.141-4.158a.686.686 0 0 0 .417-.773c-1.879-8.975-21.916-57.068-30.442-77.335-6.841-16.265-14.005-32.981-19.642-45.866-2.714-6.2-4.992-11.32-6.588-14.805-2.718-5.939-2.825-5.946-3.345-5.982a.732.732 0 0 0-.618.296c-.62-.273-2.073-1.736-2.884-2.552a54.56 54.56 0 0 0-1.25-1.235.685.685 0 0 0-.666-.16L232.482 77.27a.682.682 0 0 0-.426.368c-10.367 22.384-16.703 49.487-18.835 80.558-1.889 27.522.061 50.872 1.39 62.345a.685.685 0 0 0 .552.592c10.426 1.974 23.045 2.966 37.613 2.966Zm47.033-4.236c-47.017 5.546-75.527 1.556-83.889.028a348.865 348.865 0 0 1-1.327-61.595c2.11-30.772 8.362-57.619 18.582-79.8l33.52-9.95c.299.29.611.606.937.933 2.034 2.047 3.236 3.2 4.244 2.973h.03c2.28 4.29 14.698 32.617 29.053 66.756 16.906 40.228 27.917 68.129 29.698 75.253-2.011.705-9.367 3.062-19.77 3.837l-9.974-16.231a.684.684 0 0 0-1.268.364l.164 17.432Z"/><path fill="#fff" d="M314.823 202.912c26.237-1.492 37.688-23.125 35.116-45.741-7.053-61.867-99.924-68.75-63.718.207 9.16 19.582 12.97 46.421 28.602 45.534Z"/><path fill="#232323" d="M314.066 203.615c.262 0 .526 0 .795-.022 11.149-.633 20.42-4.968 26.821-12.531 7.174-8.489 10.43-20.867 8.939-33.964-1.368-12.086-6.189-23.088-13.91-31.814-6.734-7.606-15.542-13.299-24.805-16.028-12.498-3.685-24.002-1.436-30.02 5.87-7.331 8.901-6.008 24.015 3.726 42.559 2.438 5.209 4.506 10.97 6.506 16.541 5.418 15.101 10.551 29.389 21.948 29.389Zm.709-1.385c-4.944.284-8.966-2.304-12.642-8.141-3.357-5.329-5.974-12.614-8.745-20.329-2.013-5.605-4.093-11.4-6.56-16.671l-.014-.027c-9.47-18.035-10.852-32.621-3.888-41.074 5.662-6.873 16.612-8.955 28.574-5.429 9.021 2.659 17.602 8.207 24.171 15.624 7.537 8.516 12.232 19.258 13.579 31.066 1.451 12.723-1.694 24.726-8.626 32.93-6.145 7.279-15.082 11.439-25.845 12.056l-.004-.005Z"/><path fill="#fff" d="M301.764 157.114c-4.682-1.894-12.51-2.77-17.175-2.957-18.607-.757-35.345 2.555-54.458 4.181-9.917.739-24.643-.621-32.587-3.525-8.647-3.162-10.006-.928-4.951 3.436 11.276 9.742-4.266 5.307-18.107 3.867-11.272-1.174-5.701 3.344-4.333 4.049-3.876-.94-9.762-.987-2.736 4.708-4.198-1.365-4.041 3.412 5.472 7.718 15.8 7.706 46.263 9.969 68.265 14.489 28.107 5.781 55.002 10.842 73.669 9.832"/><path fill="#232323" d="M309.877 203.722c1.722 0 3.383-.043 4.982-.13a.682.682 0 1 0-.073-1.364c-18.83 1.021-46.631-4.292-73.495-9.819-6.98-1.438-14.635-2.618-22.737-3.867-17.038-2.63-34.66-5.348-45.361-10.575-6.542-2.956-7.945-5.788-7.694-6.434.098-.248.727-.341 1.706-.023a.685.685 0 0 0 .882-.781.685.685 0 0 0-.239-.397c-3.366-2.73-3.008-3.553-3.006-3.56.228-.455 2.281-.65 5.145.046a.69.69 0 0 0 .803-.424.681.681 0 0 0-.327-.846c-.992-.511-2.349-1.849-2.205-2.326 0-.012.381-1.04 6.157-.437 2.907.302 5.849.732 8.692 1.137 8.508 1.242 12.998 1.797 13.91-.193.595-1.297-.591-3.096-3.97-6.014-2.606-2.25-2.777-3.321-2.679-3.485.166-.286 1.806-.682 6.948 1.206 8.437 3.1 23.632 4.267 32.861 3.578 6.029-.512 11.857-1.197 17.483-1.856 12.441-1.461 24.189-2.839 36.894-2.323 4.027.164 12.129.962 16.945 2.912a.685.685 0 0 0 .888-.898.678.678 0 0 0-.373-.367c-4.991-2.02-13.289-2.843-17.405-3.009-12.806-.523-24.606.862-37.102 2.334-5.621.659-11.434 1.342-17.433 1.851-10.419.778-24.91-.787-32.295-3.485-4.96-1.819-7.772-2.017-8.597-.618-.684 1.164.308 2.918 2.964 5.211 3.929 3.396 3.665 4.321 3.621 4.412-.043.091-.467.655-3.666.483-2.326-.128-5.473-.585-8.795-1.072-2.858-.418-5.815-.848-8.75-1.155-4.818-.503-7.167-.071-7.609 1.403-.228.76.18 1.545.759 2.216-1.664-.157-3.514-.037-4.088 1.119-.481.966.096 2.213 1.81 3.866a1.686 1.686 0 0 0-1.204 1.01c-.697 1.795 1.631 5.113 8.385 8.161 10.872 5.311 28.595 8.045 45.735 10.691 8.086 1.246 15.723 2.424 22.671 3.855 24.679 5.07 50.159 9.965 68.862 9.967Z"/><path fill="#232323" d="M188.067 172.613a.68.68 0 0 0 .549-1.087.69.69 0 0 0-.415-.264c-7.901-1.592-13.695-3.453-17.717-5.7a.686.686 0 0 0-.906.275.68.68 0 0 0 .238.915c4.147 2.317 10.074 4.23 18.114 5.847a.7.7 0 0 0 .137.014Zm-2.194 6.075a.684.684 0 1 0 .089-1.364c-6.857-.91-15.455-5.052-18.142-7.017a.687.687 0 0 0-.956.146.683.683 0 0 0 .147.955c2.866 2.095 11.588 6.312 18.769 7.278a.578.578 0 0 0 .093.002Z"/><path fill="#fff" d="M155.156 196.521c-12.578-4.258-24.855-12.167-33.938-25.389-6.216-5.459-15.585-8.427-9.465-9.152 2.2-.262 5.525.313 5.525.313s-1.956-6.951-2.406-12.055c-.449-5.104 1.704-4.894 4.711 1.197-.426-5.35.99-9.781 5.265.53.101-5.78 1.141-8.812 7.963 4.899-.068-4.108.627-6.207 6.219 3.037 5.591 9.243 14.728 14.504 14.728 14.504 1.655 1.336 3.929 3.867 5.053 6.544"/><path fill="#232323" d="M155.156 197.203a.683.683 0 0 0 .228-1.328c-14.115-4.777-25.416-13.231-33.593-25.129a.91.91 0 0 0-.112-.128c-2.406-2.106-5.245-3.832-7.525-5.218-1.43-.871-3.176-1.933-3.621-2.47.42-.147.858-.239 1.302-.273 2.073-.245 5.297.303 5.329.31a.689.689 0 0 0 .783-.517.68.68 0 0 0-.008-.341c-.018-.068-1.945-6.949-2.383-11.937-.198-2.233.167-2.786.242-2.875.299.041 1.43.91 3.174 4.436a.688.688 0 0 0 1.174.089.69.69 0 0 0 .122-.446c-.249-3.128.209-4.756.522-4.961.123.029 1.206.441 3.42 5.804a.683.683 0 0 0 1.318-.247c.062-3.567.511-4.122.627-4.206.262.014 1.649.587 6.038 9.398a.685.685 0 0 0 1.298-.316c-.034-2.036.166-2.62.269-2.788.301.097 1.448.843 4.679 6.189 5.473 9.043 14.117 14.245 14.924 14.716 1.66 1.351 3.783 3.794 4.812 6.244a.692.692 0 0 0 .896.366.694.694 0 0 0 .369-.371.672.672 0 0 0-.002-.523c-1.208-2.873-3.587-5.459-5.245-6.81a.75.75 0 0 0-.086-.062c-.091-.05-9.055-5.286-14.485-14.266-3.694-6.107-5.128-7.135-6.247-6.823-.602.173-.931.716-1.097 1.562-3.576-6.841-5.179-8.136-6.417-7.858-.882.198-1.313 1.158-1.519 2.704-1.906-3.891-3.055-4.246-3.876-4.053-.593.141-1.464.828-1.624 3.567-.957-1.522-2.221-3.01-3.42-2.671-1.058.294-1.459 1.706-1.229 4.322.353 4.01 1.596 9.048 2.157 11.175-1.193-.155-3.163-.346-4.677-.166-1.217.145-2.374.402-2.57 1.303-.255 1.167 1.28 2.099 4.333 3.96 2.214 1.347 4.964 3.018 7.267 5.024 8.346 12.099 19.859 20.706 34.225 25.569a.68.68 0 0 0 .228.045Z"/><path fill="#232323" d="M137.162 171.546a.656.656 0 0 0 .34-.093.682.682 0 0 0 .253-.93c-2.654-4.59-4.007-8.946-4.257-13.709a.684.684 0 0 0-1.369.071c.265 4.988 1.676 9.537 4.44 14.329a.68.68 0 0 0 .593.332Zm-7.247-.461a.68.68 0 0 0 .611-.985c-.045-.094-4.603-9.465-4.993-18.181a.69.69 0 0 0-.222-.473.681.681 0 0 0-.493-.178.69.69 0 0 0-.475.221.667.667 0 0 0-.178.492c.337 7.585 3.821 16.09 5.135 18.726a.68.68 0 0 0 .615.378Zm-6.362-.589a.683.683 0 0 0 .637-.938c-1.451-3.618-3.421-11.98-3.923-18.196a.682.682 0 0 0-.738-.628.686.686 0 0 0-.63.737c.513 6.333 2.529 14.88 4.016 18.59a.686.686 0 0 0 .638.435Zm-2.33 1.31a.687.687 0 0 0 .668-.548.682.682 0 0 0-.1-.512c-1.469-2.209-2.623-4.802-3.859-8.669a.685.685 0 0 0-1.304.414c1.277 3.994 2.479 6.69 4.025 9.01a.687.687 0 0 0 .57.305Zm121.708-59.73a.836.836 0 1 1 .104-1.667.837.837 0 0 1 .784.885.838.838 0 0 1-.888.782Zm1.424-10.816a.837.837 0 0 1-.784-.885.836.836 0 0 1 1.671.103.837.837 0 0 1-.887.782Z"/><path fill="#232323" d="M228.581 88.341a50.163 50.163 0 0 1 2.268-8.666l.067-.184c.205-.585.291-.828.554-1.501a.116.116 0 0 1 .093-.07c.285-.033.716-.08 1.122-.103a.103.103 0 0 1 .055.009.1.1 0 0 1 .043.036.126.126 0 0 1 .021.053.12.12 0 0 1-.007.056 153.81 153.81 0 0 0-.801 2.148.056.056 0 0 1 0 .018c-2.344 6.671-3.126 12.564-2.264 17.045.214 1.122.787 4.094 2.084 4.392.684.155 1.674-.495 2.942-1.94 3.074-3.489 5.783-9.325 7.835-16.859a.608.608 0 0 1 .62-.455.614.614 0 0 1 .579.505c.887 4.92 2.18 9.492 3.649 12.879 1.765 4.094 3.726 6.316 5.668 6.425.463.013.924-.071 1.353-.245 6.204-2.211 9.805-12.576 11.077-16.932a.617.617 0 0 1 1.184.344c-1.316 4.535-5.106 15.344-11.858 17.741l-.036.014-.288.095c-.416.135-.85.205-1.288.209h-.228c-2.458-.136-4.704-2.502-6.677-7.014-1.557-3.565-2.631-7.761-3.281-10.795-2 6.532-4.56 11.68-7.388 14.9-1.66 1.884-2.937 2.602-4.143 2.327-2.082-.475-2.714-3.773-3.019-5.359-.509-2.631-.488-5.684.064-9.073Z"/><path fill="#fff" d="M283.651 152.151c17.312-10.008 63.702-20.305 71.738-7.506-5.443-12.291-41.884-86.737-81.203-74.589-5.701 1.765-7.981 11.125-8.553 19.072-1.658 23.264 17.232 61.711 18.018 63.023Z"/><path fill="#232323" d="M283.651 152.834c.12 0 .238-.032.342-.091 17.451-10.086 63.198-19.866 70.817-7.734a.683.683 0 0 0 1.204-.637c-4.18-9.446-14.788-29.878-27.984-46.61-8.4-10.645-16.803-18.549-24.973-23.493-10.054-6.085-19.839-7.734-29.06-4.875-7.039 2.172-8.665 14.484-9.037 19.675-.876 12.217 3.933 28.514 8.122 40.032 4.739 13.033 9.664 22.868 9.981 23.398a.683.683 0 0 0 .588.335Zm53.448-14.837a96.941 96.941 0 0 0-14.204 1.173c-14.124 2.132-29.99 7.052-38.965 12.037a234.218 234.218 0 0 1-9.559-22.568c-4.146-11.397-8.905-27.497-8.045-39.472.274-3.833 1.669-16.49 8.074-18.47 8.839-2.729 18.243-1.137 27.947 4.738 8.029 4.856 16.304 12.656 24.607 23.171 11.684 14.801 21.314 32.526 26.223 42.846-2.328-1.576-5.628-2.623-9.867-3.123a53.476 53.476 0 0 0-6.211-.332ZM242.458 86.09a.692.692 0 0 1 .286-.439.68.68 0 0 1 .512-.108.683.683 0 0 1 .543.813c-.176.937-4.291 22.972-4.282 26.434 0 1.138.244 1.936.736 2.425.577.569 1.574.823 3.236.823h.032a.69.69 0 0 1 .689.386.684.684 0 0 1-.357.926.673.673 0 0 1-.261.053h-.117c-1.368 0-3.092-.139-4.184-1.219-.766-.758-1.14-1.865-1.14-3.391-.012-3.676 4.129-25.767 4.307-26.704ZM213.453 7.488a9.828 9.828 0 0 1 8.937-.282c2.67-9.995 15.825-8.775 17.9-1.338 8.788-7.267 20.294 2.43 16.903 10.85-1.245 3.089-3.073 8.618-1.502 13.713-4.333 2.181-12.357 14.232-12.357 14.232s-15.962-20.291-23.845-20.68c-12.4-.612-11.887-13.106-6.036-16.495Z"/><path fill="#fff" d="M222.39 7.206c.098-.366.212-.717.337-1.053 1.651.764 3.459 2.138 4.882 4.61a.586.586 0 0 1 .048.47.568.568 0 0 1-.289.332.579.579 0 0 1-.755-.229c-2.212-3.402-4.223-4.13-4.223-4.13Zm32.594 42.559c7.648-1.212 11.974-6.344 10.567-13.47-.803-4.065-5.204-6.77-9.402-6.037-4.31.75-7.103 4.338-10.364 7.99-3.687 4.127-4.866.751-6.43-3.502-1.006-2.73-2.169-5.825-4.257-7.524-4.721-3.844-15.609-3.24-15.609-3.24s-.032 1.418-.196 3.201c-.214 2.357-.668 5.348-1.596 6.533-1.624 2.078-3.261 1.733-3.309 3.088-.039 1.163 1.273 2.564 2.027 3.171-.456 7.936-7.048 7.522-7.461 13.909-.178 2.73 1.323 5.557 4.221 7.124 8.081 3.95 18.222 1.15 18.222 1.15 1.806 4.639 1.865 11.396 1.667 15.754 3.596 9.494 10.851 11.268 20.581 3.207a53.328 53.328 0 0 0 13.244-13.338s-7.507-8.884-11.905-18.016Z"/><path fill="#232323" d="M242.597 86.917c3.398 0 7.245-1.76 11.468-5.256a54.073 54.073 0 0 0 13.387-13.497.675.675 0 0 0-.041-.826c-.073-.086-7.069-8.4-11.415-17.06 3.824-.784 6.789-2.551 8.613-5.144 1.731-2.473 2.28-5.575 1.619-8.97-.864-4.38-5.528-7.391-10.191-6.579-4.145.723-6.923 3.867-9.862 7.199-.294.334-.593.682-.894 1.01-1.053 1.18-1.922 1.747-2.508 1.63-1.033-.195-1.886-2.517-2.711-4.762l-.057-.15c-.979-2.662-2.199-5.973-4.465-7.818-4.871-3.967-15.625-3.412-16.081-3.393a.685.685 0 0 0-.645.666c0 .014-.032 1.417-.191 3.155-.29 3.152-.805 5.345-1.453 6.175a5.755 5.755 0 0 1-1.982 1.606c-.67.373-1.432.794-1.47 1.879-.044 1.308 1.14 2.711 2.004 3.489-.308 3.685-2.009 5.309-3.81 7.028-1.679 1.592-3.421 3.26-3.626 6.54-.205 3.157 1.551 6.14 4.577 7.767l.025.014c7.167 3.505 15.734 1.897 18.091 1.349 1.524 4.392 1.617 10.485 1.416 14.911a.688.688 0 0 0 .044.273c1.787 4.72 4.419 7.57 7.821 8.466a9.226 9.226 0 0 0 2.337.298Zm23.435-19.106a52.787 52.787 0 0 1-12.77 12.749l-.043.032c-4.816 3.987-9.181 5.613-12.619 4.704-2.921-.772-5.222-3.294-6.841-7.507.208-4.74.071-11.293-1.722-15.89a.68.68 0 0 0-.818-.409c-.101.027-9.981 2.677-17.725-1.1-2.545-1.381-4.022-3.867-3.853-6.474.177-2.75 1.582-4.094 3.208-5.643 1.872-1.786 3.993-3.812 4.255-8.268a.688.688 0 0 0-.256-.571c-.752-.605-1.799-1.82-1.771-2.618 0-.278.095-.36.766-.73a7.097 7.097 0 0 0 2.396-1.96c.83-1.065 1.414-3.383 1.736-6.893.098-1.076.15-2.015.175-2.602 2.342-.055 10.686 0 14.517 3.11 1.977 1.608 3.124 4.724 4.045 7.23l.054.15c1.045 2.841 1.948 5.293 3.742 5.634 1.129.228 2.338-.44 3.788-2.065.303-.339.602-.682.901-1.014 2.896-3.282 5.397-6.117 9.071-6.758 3.876-.682 7.898 1.895 8.612 5.498.595 3.022.112 5.763-1.4 7.924-1.737 2.484-4.713 4.121-8.603 4.738a.685.685 0 0 0-.511.971c3.858 8.018 10.149 15.913 11.666 17.764v-.002Z"/><path fill="#232323" d="M248.232 48.89a.687.687 0 0 1 .342-.404.69.69 0 0 1 .529-.038c2.228.723 4.476.73 5.97.61h.077l.659 1.33-.162.016c-.228.025-.469.045-.684.06a16.73 16.73 0 0 1-6.275-.698.689.689 0 0 1-.416-.342.693.693 0 0 1-.04-.535Zm-7.778 6.868c1.316.749 2.408 7.961-4.65 11.48a9.21 9.21 0 0 1-3.37.892c-.456-4.25-1.45-6.544-1.455-6.551-.004-.007 5.874-1.688 9.475-5.82Zm-6.294-25.961c0-2.773-2.063-5.325-4.674-6.164-1.628-.519-3.592-.321-4.88.869a1.343 1.343 0 0 0-.407 1.127 1.337 1.337 0 0 0 .66 1.001c1.824.967 3.512 1.713 5.245 2.87.586.358 1.368.874 1.954 1.222.586.348 1.89.371 2.093-.72.01-.068.013-.137.009-.205Zm-5.388 3.985c-1.177-.455-4.022-1.49-6.515-3.319a.774.774 0 0 0-.58-.143.781.781 0 0 0-.512.309c-.657.91-1.457 2.557.401 3.585 2.281 1.264 6.321 1.137 7.341.227a.402.402 0 0 0 .02-.566.46.46 0 0 0-.155-.093ZM218.52 47.331a3.4 3.4 0 0 0 1.224.769 4.64 4.64 0 0 0 1.394.277 5.092 5.092 0 0 0 2.761-.646 5.136 5.136 0 0 0 1.122-.91c.326-.356.596-.76.8-1.198.42-.872.509-1.866.251-2.798a.515.515 0 0 0-1.01.136v.028a4.04 4.04 0 0 1-1.982 3.357 4.484 4.484 0 0 1-1.942.557 3.804 3.804 0 0 1-1.989-.377l-.027-.014a.518.518 0 0 0-.607.82h.005Zm31.78-4.545c2.306-7.863 9.005-7.59 9.292-7.574a.687.687 0 0 1 .609.464.67.67 0 0 1 .034.266.687.687 0 0 1-.46.61.674.674 0 0 1-.267.034c-.24-.014-5.874-.268-7.883 6.596a.692.692 0 0 1-.616.494h-.048a.707.707 0 0 1-.436-.151.681.681 0 0 1-.225-.739Z"/></g><g clip-path="url(#b)"><path fill="#fff" d="M66.156 53.475c.804-45.07 64.981-56.404 80.254-11.468 17.552-15.467 41.802.4 36.443 21.468 22.91-2.533 43.409 16.001 40.462 42.67-2.788 25.219-24.385 36.402-54.262 36.402l-131.3-.533c-54.798-4.001-41.936-60.67-8.441-60.804-7.77-21.202 16.211-41.736 36.844-27.735Z"/><path fill="#232323" d="m169.053 142.947-131.302-.533-.028-.001c-6.593-.482-12.502-1.751-17.562-3.773-4.677-1.869-8.648-4.384-11.803-7.478-5.655-5.542-8.617-12.976-8.34-20.931.258-7.414 3.339-14.801 8.453-20.269 5.361-5.731 12.543-8.965 20.276-9.145-1.709-4.994-1.778-10.21-.195-15.121 1.513-4.692 4.54-8.974 8.52-12.056 4.013-3.106 8.738-4.88 13.666-5.127 5.147-.26 10.33 1.2 15.035 4.228.345-10.39 4.095-19.614 10.87-26.716 6.276-6.578 14.9-11 24.286-12.452 9.401-1.455 18.943.185 26.869 4.616 8.679 4.852 15.17 12.842 18.798 23.128 4.062-3.433 8.738-5.448 13.558-5.836 4.602-.37 9.151.716 13.154 3.142 3.948 2.393 7.116 6.019 8.92 10.208 1.888 4.387 2.282 9.28 1.149 14.188 11.065-1.058 21.811 2.726 29.562 10.432 4.008 3.984 6.991 8.762 8.868 14.2 1.988 5.761 2.63 11.998 1.907 18.537-1.354 12.257-7.127 21.662-17.157 27.954-9.315 5.843-21.933 8.805-37.504 8.805Zm-131.285-1.333 131.286.533c7.522 0 14.453-.717 20.599-2.131 6.32-1.454 11.863-3.658 16.475-6.551 9.813-6.155 15.461-15.362 16.787-27.364.71-6.421.081-12.541-1.868-18.19-1.837-5.322-4.756-9.997-8.676-13.894-7.71-7.665-18.453-11.363-29.474-10.144a.402.402 0 0 1-.347-.135c-.087-.099-.119-.234-.087-.36 1.252-4.922.915-9.843-.974-14.231-1.738-4.039-4.792-7.533-8.599-9.84-3.858-2.339-8.239-3.386-12.671-3.029-4.825.39-9.508 2.474-13.542 6.029a.405.405 0 0 1-.647-.171c-3.524-10.368-9.965-18.407-18.626-23.25-7.77-4.343-17.128-5.95-26.351-4.523-9.211 1.425-17.673 5.762-23.827 12.213-6.792 7.119-10.48 16.423-10.668 26.906a.403.403 0 0 1-.628.324c-4.718-3.202-9.958-4.756-15.152-4.494-4.761.24-9.33 1.955-13.212 4.96-3.855 2.984-6.784 7.128-8.248 11.668-1.584 4.914-1.456 10.147.371 15.133a.398.398 0 0 1-.376.537c-7.722.03-14.915 3.19-20.253 8.897-4.985 5.329-7.988 12.528-8.24 19.753-.269 7.728 2.608 14.95 8.1 20.333 3.08 3.019 6.962 5.477 11.54 7.306 4.979 1.989 10.802 3.24 17.307 3.716Z"/><path fill="#fff" d="M154.045 85.01H69.508a3.277 3.277 0 0 1-3.285-3.27v-4.128a3.278 3.278 0 0 1 3.285-3.27h84.537a3.277 3.277 0 0 1 3.285 3.27v4.129a3.277 3.277 0 0 1-3.285 3.269Z"/><path fill="#232323" d="M154.045 85.41H69.508c-2.033 0-3.687-1.646-3.687-3.67v-4.128c0-2.023 1.654-3.67 3.687-3.67h84.537c2.033 0 3.687 1.647 3.687 3.67v4.129c0 2.023-1.654 3.669-3.687 3.669ZM69.508 74.743a2.88 2.88 0 0 0-2.883 2.869v4.129a2.88 2.88 0 0 0 2.883 2.869h84.537a2.88 2.88 0 0 0 2.883-2.87v-4.128a2.88 2.88 0 0 0-2.883-2.87H69.508Z"/><path fill="#232323" d="M151.76 81.143H71.125a1.621 1.621 0 0 1-1.625-1.617 1.62 1.62 0 0 1 1.625-1.617h80.635a1.62 1.62 0 0 1 1.625 1.617 1.62 1.62 0 0 1-1.625 1.617Z"/><path fill="#fff" d="M156.033 123.012H68.086a1.621 1.621 0 0 1-1.625-1.617v-15.967c0-.893.728-1.617 1.625-1.617h87.947a1.62 1.62 0 0 1 1.625 1.617v15.967a1.62 1.62 0 0 1-1.625 1.617Z"/><path fill="#232323" d="M156.033 123.413H68.086a2.025 2.025 0 0 1-2.027-2.018v-15.967c0-1.112.91-2.017 2.027-2.017h87.947c1.118 0 2.027.905 2.027 2.017v15.967a2.024 2.024 0 0 1-2.027 2.018Zm-87.947-19.202c-.674 0-1.223.546-1.223 1.217v15.967c0 .671.549 1.217 1.223 1.217h87.947c.675 0 1.223-.546 1.223-1.217v-15.967c0-.671-.548-1.217-1.223-1.217H68.086Z"/><path fill="#D9C6F4" d="M77.245 119.584h-5.37a.927.927 0 0 1-.93-.925v-10.468c0-.511.417-.925.93-.925h5.37c.513 0 .93.414.93.925v10.468a.927.927 0 0 1-.93.925Zm12.585 0h-5.37a.927.927 0 0 1-.928-.925v-10.468c0-.511.416-.925.929-.925h5.37c.513 0 .93.414.93.925v10.468a.927.927 0 0 1-.93.925Z"/><path fill="#fff" d="M102.417 119.584h-5.37a.927.927 0 0 1-.93-.925v-10.468c0-.511.417-.925.93-.925h5.37c.513 0 .929.414.929.925v10.468a.927.927 0 0 1-.929.925Z"/><path fill="#232323" d="M102.417 119.984h-5.37a1.33 1.33 0 0 1-1.331-1.325v-10.468c0-.73.597-1.325 1.33-1.325h5.371a1.33 1.33 0 0 1 1.331 1.325v10.468a1.33 1.33 0 0 1-1.331 1.325Zm-5.37-12.318a.527.527 0 0 0-.527.525v10.468c0 .29.236.525.527.525h5.37a.526.526 0 0 0 .527-.525v-10.468a.527.527 0 0 0-.527-.525h-5.37Z"/><path fill="#fff" d="M115.003 119.584h-5.37a.927.927 0 0 1-.929-.925v-10.468c0-.511.416-.925.929-.925h5.37c.513 0 .929.414.929.925v10.468a.927.927 0 0 1-.929.925Z"/><path fill="#232323" d="M115.003 119.984h-5.37a1.33 1.33 0 0 1-1.331-1.325v-10.468c0-.73.597-1.325 1.331-1.325h5.37a1.33 1.33 0 0 1 1.331 1.325v10.468a1.33 1.33 0 0 1-1.331 1.325Zm-5.37-12.318a.527.527 0 0 0-.527.525v10.468c0 .29.236.525.527.525h5.37a.526.526 0 0 0 .527-.525v-10.468a.527.527 0 0 0-.527-.525h-5.37Z"/><path fill="#fff" d="M127.589 119.584h-5.37a.927.927 0 0 1-.929-.925v-10.468c0-.511.416-.925.929-.925h5.37c.513 0 .929.414.929.925v10.468a.927.927 0 0 1-.929.925Z"/><path fill="#232323" d="M127.589 119.984h-5.37a1.33 1.33 0 0 1-1.331-1.325v-10.468c0-.73.597-1.325 1.331-1.325h5.37a1.33 1.33 0 0 1 1.331 1.325v10.468a1.33 1.33 0 0 1-1.331 1.325Zm-5.37-12.318a.527.527 0 0 0-.527.525v10.468c0 .29.236.525.527.525h5.37a.526.526 0 0 0 .527-.525v-10.468a.527.527 0 0 0-.527-.525h-5.37Z"/><path fill="#fff" d="M140.175 119.584h-5.37a.927.927 0 0 1-.929-.925v-10.468c0-.511.416-.925.929-.925h5.37c.513 0 .929.414.929.925v10.468a.927.927 0 0 1-.929.925Z"/><path fill="#232323" d="M140.175 119.984h-5.37a1.33 1.33 0 0 1-1.331-1.325v-10.468c0-.73.597-1.325 1.331-1.325h5.37a1.33 1.33 0 0 1 1.331 1.325v10.468a1.33 1.33 0 0 1-1.331 1.325Zm-5.37-12.318a.527.527 0 0 0-.527.525v10.468c0 .29.236.525.527.525h5.37a.526.526 0 0 0 .527-.525v-10.468a.527.527 0 0 0-.527-.525h-5.37Z"/><path fill="#fff" d="M152.761 119.584h-5.37a.927.927 0 0 1-.929-.925v-10.468c0-.511.416-.925.929-.925h5.37c.513 0 .929.414.929.925v10.468a.927.927 0 0 1-.929.925Z"/><path fill="#232323" d="M152.761 119.984h-5.37a1.33 1.33 0 0 1-1.331-1.325v-10.468c0-.73.597-1.325 1.331-1.325h5.37a1.33 1.33 0 0 1 1.331 1.325v10.468a1.33 1.33 0 0 1-1.331 1.325Zm-5.37-12.318a.527.527 0 0 0-.527.525v10.468c0 .29.236.525.527.525h5.37a.526.526 0 0 0 .527-.525v-10.468a.527.527 0 0 0-.527-.525h-5.37Z"/></g><defs><clipPath id="a"><path fill="#fff" d="M373 0H109v463h264z"/></clipPath><clipPath id="b"><path fill="#fff" d="M0 13h224v130H0z"/></clipPath></defs></svg>