<svg width="52" height="52" viewBox="0 0 52 52" fill="none" xmlns="http://www.w3.org/2000/svg">
<g clip-path="url(#clip0_115_125)" filter="url(#filter0_d_115_125)">
<path d="M26 0C20.0298 0 19.279 0.0275 16.9333 0.132C14.5875 0.242 12.9897 0.6105 11.59 1.155C10.1211 1.7059 8.79089 2.57235 7.69325 3.69325C6.57235 4.79089 5.7059 6.12107 5.155 7.59C4.6105 8.987 4.23925 10.5875 4.132 12.925C4.0275 15.2762 4 16.0243 4 22.0028C4 27.9757 4.0275 28.7238 4.132 31.0695C4.242 33.4125 4.6105 35.0103 5.155 36.41C5.71875 37.8565 6.4695 39.083 7.69325 40.3067C8.91425 41.5305 10.1407 42.284 11.5873 42.845C12.9897 43.3895 14.5848 43.7607 16.9278 43.868C19.2763 43.9725 20.0243 44 26 44C31.9757 44 32.721 43.9725 35.0695 43.868C37.4098 43.758 39.013 43.3895 40.4128 42.845C41.8807 42.2937 43.2099 41.4273 44.3067 40.3067C45.5305 39.083 46.2812 37.8565 46.845 36.41C47.3867 35.0103 47.758 33.4125 47.868 31.0695C47.9725 28.7238 48 27.9757 48 22C48 16.0243 47.9725 15.2763 47.868 12.9278C47.758 10.5875 47.3867 8.987 46.845 7.59C46.2941 6.12107 45.4277 4.79089 44.3067 3.69325C43.2091 2.57235 41.8789 1.7059 40.41 1.155C39.0075 0.6105 37.407 0.23925 35.0667 0.132C32.7183 0.0275 31.973 0 25.9945 0H26ZM24.0282 3.9655H26.0028C31.8768 3.9655 32.5725 3.98475 34.8907 4.092C37.0357 4.18825 38.2017 4.5485 38.9772 4.84825C40.003 5.247 40.7373 5.7255 41.5072 6.4955C42.2772 7.2655 42.753 7.997 43.1518 9.0255C43.4543 9.79825 43.8117 10.9643 43.908 13.1093C44.0153 15.4275 44.0373 16.1233 44.0373 21.9945C44.0373 27.8658 44.0153 28.5642 43.908 30.8825C43.8117 33.0275 43.4515 34.1908 43.1518 34.9663C42.7965 35.9202 42.2339 36.7834 41.5045 37.4935C40.7345 38.2635 40.003 38.7393 38.9745 39.138C38.2045 39.4405 37.0385 39.798 34.8907 39.897C32.5725 40.0015 31.8768 40.0263 26.0028 40.0263C20.1288 40.0263 19.4303 40.0015 17.112 39.897C14.967 39.798 13.8038 39.4405 13.0282 39.138C12.0735 38.784 11.2094 38.2223 10.4983 37.4935C9.7675 36.7829 9.2039 35.9187 8.84825 34.9635C8.5485 34.1908 8.18825 33.0247 8.092 30.8797C7.9875 28.5615 7.9655 27.8657 7.9655 21.989C7.9655 16.1122 7.9875 15.422 8.092 13.1037C8.191 10.9587 8.5485 9.79275 8.851 9.01725C9.24975 7.9915 9.72825 7.25725 10.4983 6.48725C11.2682 5.71725 11.9998 5.2415 13.0282 4.84275C13.8038 4.54025 14.967 4.18275 17.112 4.08375C19.1415 3.99025 19.928 3.96275 24.0282 3.96V3.9655ZM37.7453 7.6175C37.3986 7.6175 37.0553 7.68579 36.735 7.81846C36.4147 7.95113 36.1236 8.14559 35.8785 8.39074C35.6333 8.63589 35.4389 8.92692 35.3062 9.24722C35.1735 9.56752 35.1052 9.91081 35.1052 10.2575C35.1052 10.6042 35.1735 10.9475 35.3062 11.2678C35.4389 11.5881 35.6333 11.8791 35.8785 12.1243C36.1236 12.3694 36.4147 12.5639 36.735 12.6965C37.0553 12.8292 37.3986 12.8975 37.7453 12.8975C38.4454 12.8975 39.1169 12.6194 39.612 12.1243C40.1071 11.6292 40.3853 10.9577 40.3853 10.2575C40.3853 9.55733 40.1071 8.88583 39.612 8.39074C39.1169 7.89564 38.4454 7.6175 37.7453 7.6175ZM26.0028 10.703C24.5042 10.6796 23.016 10.9546 21.6247 11.5119C20.2334 12.0692 18.9669 12.8977 17.8989 13.9492C16.8309 15.0006 15.9828 16.2541 15.4038 17.6365C14.8249 19.0189 14.5267 20.5026 14.5267 22.0014C14.5267 23.5001 14.8249 24.9839 15.4038 26.3663C15.9828 27.7487 16.8309 29.0021 17.8989 30.0536C18.9669 31.1051 20.2334 31.9336 21.6247 32.4909C23.016 33.0482 24.5042 33.3231 26.0028 33.2998C28.9687 33.2535 31.7976 32.0428 33.8787 29.9289C35.9598 27.8151 37.1262 24.9677 37.1262 22.0014C37.1262 19.035 35.9598 16.1876 33.8787 14.0738C31.7976 11.96 28.9687 10.7493 26.0028 10.703ZM26.0028 14.6658C26.9659 14.6658 27.9196 14.8555 28.8094 15.224C29.6993 15.5926 30.5078 16.1329 31.1888 16.8139C31.8699 17.4949 32.4101 18.3035 32.7787 19.1933C33.1473 20.0831 33.337 21.0369 33.337 22C33.337 22.9631 33.1473 23.9169 32.7787 24.8067C32.4101 25.6965 31.8699 26.5051 31.1888 27.1861C30.5078 27.8671 29.6993 28.4074 28.8094 28.776C27.9196 29.1445 26.9659 29.3342 26.0028 29.3342C24.0576 29.3342 22.1921 28.5615 20.8167 27.1861C19.4412 25.8107 18.6685 23.9452 18.6685 22C18.6685 20.0548 19.4412 18.1893 20.8167 16.8139C22.1921 15.4385 24.0576 14.6658 26.0028 14.6658Z" fill="black"/>
</g>
<defs>
<filter id="filter0_d_115_125" x="0" y="0" width="52" height="52" filterUnits="userSpaceOnUse" color-interpolation-filters="sRGB">
<feFlood flood-opacity="0" result="BackgroundImageFix"/>
<feColorMatrix in="SourceAlpha" type="matrix" values="0 0 0 0 0 0 0 0 0 0 0 0 0 0 0 0 0 0 127 0" result="hardAlpha"/>
<feOffset dy="4"/>
<feGaussianBlur stdDeviation="2"/>
<feComposite in2="hardAlpha" operator="out"/>
<feColorMatrix type="matrix" values="0 0 0 0 0 0 0 0 0 0 0 0 0 0 0 0 0 0 0.25 0"/>
<feBlend mode="normal" in2="BackgroundImageFix" result="effect1_dropShadow_115_125"/>
<feBlend mode="normal" in="SourceGraphic" in2="effect1_dropShadow_115_125" result="shape"/>
</filter>
<clipPath id="clip0_115_125">
<rect width="44" height="44" fill="white" transform="translate(4)"/>
</clipPath>
</defs>
</svg>
