<svg width="849" height="217" viewBox="0 0 849 217" fill="none" xmlns="http://www.w3.org/2000/svg">
<path d="M22.9782 216.656V190.291H12.656V186.55H37.5582V190.291H27.2361V216.656H22.9782Z" fill="#FDFFFC"/>
<path d="M63.3599 199.538H78.8431V203.194H63.3599V199.538ZM63.747 212.914H81.2947V216.656H59.4461V186.55H80.6925V190.291H63.747V212.914Z" fill="#FDFFFC"/>
<path d="M118.882 217C116.588 217 114.467 216.627 112.517 215.882C110.596 215.108 108.918 214.032 107.485 212.656C106.08 211.251 104.976 209.617 104.173 207.753C103.37 205.889 102.969 203.839 102.969 201.603C102.969 199.366 103.37 197.316 104.173 195.452C104.976 193.589 106.094 191.969 107.528 190.592C108.961 189.188 110.639 188.112 112.56 187.367C114.51 186.593 116.631 186.206 118.925 186.206C121.248 186.206 123.384 186.607 125.333 187.41C127.312 188.184 128.989 189.345 130.366 190.894L127.57 193.603C126.423 192.399 125.133 191.51 123.699 190.937C122.266 190.334 120.732 190.033 119.097 190.033C117.406 190.033 115.829 190.32 114.366 190.894C112.933 191.467 111.685 192.27 110.624 193.302C109.564 194.334 108.732 195.567 108.13 197.001C107.556 198.406 107.27 199.94 107.27 201.603C107.27 203.266 107.556 204.814 108.13 206.248C108.732 207.653 109.564 208.871 110.624 209.904C111.685 210.936 112.933 211.739 114.366 212.312C115.829 212.885 117.406 213.172 119.097 213.172C120.732 213.172 122.266 212.885 123.699 212.312C125.133 211.71 126.423 210.792 127.57 209.559L130.366 212.269C128.989 213.817 127.312 214.993 125.333 215.796C123.384 216.599 121.233 217 118.882 217Z" fill="#FDFFFC"/>
<path d="M175.295 186.55H179.596V216.656H175.295V186.55ZM158.006 216.656H153.705V186.55H158.006V216.656ZM175.682 203.237H157.575V199.495H175.682V203.237Z" fill="#FDFFFC"/>
<path d="M205.811 216.656V186.55H209.338L229.251 211.28H227.402V186.55H231.702V216.656H228.176L208.263 191.926H210.112V216.656H205.811Z" fill="#FDFFFC"/>
<path d="M257.917 216.656V186.55H262.218V216.656H257.917Z" fill="#FDFFFC"/>
<path d="M301.897 217C299.603 217 297.482 216.627 295.532 215.882C293.611 215.108 291.933 214.032 290.5 212.656C289.095 211.251 287.991 209.617 287.188 207.753C286.385 205.889 285.984 203.839 285.984 201.603C285.984 199.366 286.385 197.316 287.188 195.452C287.991 193.589 289.109 191.969 290.543 190.592C291.976 189.188 293.654 188.112 295.575 187.367C297.525 186.593 299.646 186.206 301.94 186.206C304.263 186.206 306.399 186.607 308.348 187.41C310.327 188.184 312.004 189.345 313.381 190.894L310.585 193.603C309.438 192.399 308.148 191.51 306.714 190.937C305.281 190.334 303.747 190.033 302.112 190.033C300.421 190.033 298.844 190.32 297.381 190.894C295.948 191.467 294.7 192.27 293.639 193.302C292.579 194.334 291.747 195.567 291.145 197.001C290.571 198.406 290.285 199.94 290.285 201.603C290.285 203.266 290.571 204.814 291.145 206.248C291.747 207.653 292.579 208.871 293.639 209.904C294.7 210.936 295.948 211.739 297.381 212.312C298.844 212.885 300.421 213.172 302.112 213.172C303.747 213.172 305.281 212.885 306.714 212.312C308.148 211.71 309.438 210.792 310.585 209.559L313.381 212.269C312.004 213.817 310.327 214.993 308.348 215.796C306.399 216.599 304.248 217 301.897 217Z" fill="#FDFFFC"/>
<path d="M331.447 216.656L345.081 186.55H349.338L363.015 216.656H358.499L346.328 188.958H348.048L335.877 216.656H331.447ZM337.253 209.129L338.414 205.689H355.36L356.607 209.129H337.253Z" fill="#FDFFFC"/>
<path d="M384.71 216.656V186.55H389.011V212.914H405.311V216.656H384.71Z" fill="#FDFFFC"/>
<path d="M464.978 217C462.684 217 460.491 216.656 458.397 215.968C456.304 215.251 454.656 214.333 453.451 213.215L455.043 209.861C456.19 210.864 457.652 211.696 459.43 212.355C461.207 213.015 463.057 213.344 464.978 213.344C466.727 213.344 468.146 213.144 469.236 212.742C470.325 212.341 471.128 211.796 471.644 211.108C472.16 210.391 472.418 209.588 472.418 208.699C472.418 207.667 472.074 206.836 471.386 206.205C470.727 205.574 469.852 205.072 468.763 204.699C467.702 204.298 466.526 203.954 465.236 203.667C463.946 203.38 462.641 203.051 461.322 202.678C460.032 202.277 458.842 201.775 457.752 201.173C456.691 200.571 455.831 199.768 455.172 198.764C454.512 197.732 454.183 196.413 454.183 194.807C454.183 193.259 454.584 191.84 455.387 190.549C456.218 189.231 457.48 188.184 459.172 187.41C460.892 186.607 463.071 186.206 465.709 186.206C467.458 186.206 469.193 186.435 470.913 186.894C472.633 187.352 474.124 188.012 475.386 188.872L473.967 192.313C472.676 191.453 471.315 190.836 469.881 190.463C468.447 190.062 467.057 189.861 465.709 189.861C464.017 189.861 462.627 190.076 461.537 190.506C460.448 190.937 459.645 191.51 459.129 192.227C458.641 192.944 458.397 193.746 458.397 194.635C458.397 195.696 458.727 196.542 459.387 197.173C460.075 197.804 460.949 198.305 462.01 198.678C463.1 199.051 464.29 199.395 465.58 199.71C466.87 199.997 468.16 200.327 469.451 200.7C470.77 201.072 471.96 201.56 473.021 202.162C474.11 202.764 474.985 203.567 475.644 204.57C476.304 205.574 476.633 206.864 476.633 208.441C476.633 209.961 476.217 211.38 475.386 212.699C474.554 213.989 473.264 215.036 471.515 215.839C469.795 216.613 467.616 217 464.978 217Z" fill="#FDFFFC"/>
<path d="M513.711 217C511.417 217 509.281 216.613 507.303 215.839C505.353 215.065 503.661 213.989 502.228 212.613C500.794 211.208 499.676 209.574 498.873 207.71C498.07 205.846 497.669 203.811 497.669 201.603C497.669 199.395 498.07 197.359 498.873 195.496C499.676 193.632 500.794 192.012 502.228 190.635C503.661 189.231 505.353 188.141 507.303 187.367C509.252 186.593 511.389 186.206 513.711 186.206C516.005 186.206 518.112 186.593 520.033 187.367C521.983 188.112 523.675 189.188 525.108 190.592C526.571 191.969 527.689 193.589 528.463 195.452C529.266 197.316 529.667 199.366 529.667 201.603C529.667 203.839 529.266 205.889 528.463 207.753C527.689 209.617 526.571 211.251 525.108 212.656C523.675 214.032 521.983 215.108 520.033 215.882C518.112 216.627 516.005 217 513.711 217ZM513.711 213.172C515.374 213.172 516.908 212.885 518.313 212.312C519.747 211.739 520.98 210.936 522.012 209.904C523.073 208.843 523.89 207.61 524.463 206.205C525.065 204.8 525.367 203.266 525.367 201.603C525.367 199.94 525.065 198.406 524.463 197.001C523.89 195.596 523.073 194.377 522.012 193.345C520.98 192.284 519.747 191.467 518.313 190.894C516.908 190.32 515.374 190.033 513.711 190.033C512.019 190.033 510.457 190.32 509.023 190.894C507.618 191.467 506.385 192.284 505.324 193.345C504.263 194.377 503.432 195.596 502.83 197.001C502.256 198.406 501.97 199.94 501.97 201.603C501.97 203.266 502.256 204.8 502.83 206.205C503.432 207.61 504.263 208.843 505.324 209.904C506.385 210.936 507.618 211.739 509.023 212.312C510.457 212.885 512.019 213.172 513.711 213.172Z" fill="#FDFFFC"/>
<path d="M553.445 216.656V186.55H557.745V212.914H574.046V216.656H553.445Z" fill="#FDFFFC"/>
<path d="M608.153 217C604.197 217 601.086 215.867 598.82 213.602C596.555 211.337 595.423 208.025 595.423 203.667V186.55H599.724V203.495C599.724 206.85 600.455 209.301 601.917 210.85C603.408 212.398 605.501 213.172 608.196 213.172C610.92 213.172 613.013 212.398 614.476 210.85C615.967 209.301 616.712 206.85 616.712 203.495V186.55H620.884V203.667C620.884 208.025 619.751 211.337 617.486 213.602C615.25 215.867 612.139 217 608.153 217Z" fill="#FDFFFC"/>
<path d="M652.337 216.656V190.291H642.015V186.55H666.917V190.291H656.595V216.656H652.337Z" fill="#FDFFFC"/>
<path d="M688.805 216.656V186.55H693.106V216.656H688.805Z" fill="#FDFFFC"/>
<path d="M732.914 217C730.62 217 728.484 216.613 726.506 215.839C724.556 215.065 722.864 213.989 721.431 212.613C719.997 211.208 718.879 209.574 718.076 207.71C717.273 205.846 716.872 203.811 716.872 201.603C716.872 199.395 717.273 197.359 718.076 195.496C718.879 193.632 719.997 192.012 721.431 190.635C722.864 189.231 724.556 188.141 726.506 187.367C728.455 186.593 730.592 186.206 732.914 186.206C735.208 186.206 737.315 186.593 739.236 187.367C741.186 188.112 742.878 189.188 744.311 190.592C745.774 191.969 746.892 193.589 747.666 195.452C748.469 197.316 748.87 199.366 748.87 201.603C748.87 203.839 748.469 205.889 747.666 207.753C746.892 209.617 745.774 211.251 744.311 212.656C742.878 214.032 741.186 215.108 739.236 215.882C737.315 216.627 735.208 217 732.914 217ZM732.914 213.172C734.577 213.172 736.111 212.885 737.516 212.312C738.95 211.739 740.183 210.936 741.215 209.904C742.276 208.843 743.093 207.61 743.666 206.205C744.268 204.8 744.57 203.266 744.57 201.603C744.57 199.94 744.268 198.406 743.666 197.001C743.093 195.596 742.276 194.377 741.215 193.345C740.183 192.284 738.95 191.467 737.516 190.894C736.111 190.32 734.577 190.033 732.914 190.033C731.222 190.033 729.66 190.32 728.226 190.894C726.821 191.467 725.588 192.284 724.527 193.345C723.466 194.377 722.635 195.596 722.033 197.001C721.459 198.406 721.173 199.94 721.173 201.603C721.173 203.266 721.459 204.8 722.033 206.205C722.635 207.61 723.466 208.843 724.527 209.904C725.588 210.936 726.821 211.739 728.226 212.312C729.66 212.885 731.222 213.172 732.914 213.172Z" fill="#FDFFFC"/>
<path d="M772.648 216.656V186.55H776.174L796.088 211.28H794.238V186.55H798.539V216.656H795.012L775.099 191.926H776.949V216.656H772.648Z" fill="#FDFFFC"/>
<path d="M833.528 217C831.234 217 829.041 216.656 826.948 215.968C824.854 215.251 823.206 214.333 822.001 213.215L823.593 209.861C824.74 210.864 826.202 211.696 827.98 212.355C829.757 213.015 831.607 213.344 833.528 213.344C835.277 213.344 836.696 213.144 837.786 212.742C838.875 212.341 839.678 211.796 840.194 211.108C840.71 210.391 840.968 209.588 840.968 208.699C840.968 207.667 840.624 206.836 839.936 206.205C839.277 205.574 838.402 205.072 837.313 204.699C836.252 204.298 835.076 203.954 833.786 203.667C832.496 203.38 831.191 203.051 829.872 202.678C828.582 202.277 827.392 201.775 826.302 201.173C825.242 200.571 824.381 199.768 823.722 198.764C823.062 197.732 822.733 196.413 822.733 194.807C822.733 193.259 823.134 191.84 823.937 190.549C824.768 189.231 826.03 188.184 827.722 187.41C829.442 186.607 831.621 186.206 834.259 186.206C836.008 186.206 837.743 186.435 839.463 186.894C841.184 187.352 842.674 188.012 843.936 188.872L842.517 192.313C841.227 191.453 839.865 190.836 838.431 190.463C836.997 190.062 835.607 189.861 834.259 189.861C832.567 189.861 831.177 190.076 830.087 190.506C828.998 190.937 828.195 191.51 827.679 192.227C827.191 192.944 826.948 193.746 826.948 194.635C826.948 195.696 827.277 196.542 827.937 197.173C828.625 197.804 829.499 198.305 830.56 198.678C831.65 199.051 832.84 199.395 834.13 199.71C835.42 199.997 836.711 200.327 838.001 200.7C839.32 201.072 840.51 201.56 841.571 202.162C842.66 202.764 843.535 203.567 844.194 204.57C844.854 205.574 845.183 206.864 845.183 208.441C845.183 209.961 844.768 211.38 843.936 212.699C843.105 213.989 841.814 215.036 840.065 215.839C838.345 216.613 836.166 217 833.528 217Z" fill="#FDFFFC"/>
<path d="M0.21582 105.414H11.9982V25.436H0.21582V2.94229H55.0219C60.9726 2.94229 66.2093 3.77539 70.7318 5.44159C75.3734 7.10779 79.2413 9.36907 82.3357 12.2254C85.5491 15.0818 87.9294 18.5332 89.4765 22.5797C91.1427 26.5071 91.9758 30.7916 91.9758 35.4332V37.5755C91.9758 44.7163 89.9526 50.429 85.9061 54.7135C81.9786 58.998 76.98 61.9734 70.9103 63.6396V66.853C76.98 68.5192 81.9786 71.554 85.9061 75.9576C89.9526 80.2421 91.9758 85.9548 91.9758 93.0956V95.2379C91.9758 99.8794 91.1427 104.223 89.4765 108.27C87.9294 112.197 85.5491 115.649 82.3357 118.624C79.2413 121.481 75.3734 123.742 70.7318 125.408C66.2093 127.074 60.9726 127.907 55.0219 127.907H0.21582V105.414ZM35.5631 105.414H52.7011C57.6997 105.414 61.7462 104.342 64.8406 102.2C67.935 100.058 69.4821 96.4875 69.4821 91.4889V90.4178C69.4821 85.4192 67.935 81.8488 64.8406 79.7065C61.7462 77.5643 57.6997 76.4931 52.7011 76.4931H35.5631V105.414ZM35.5631 53.9994H52.7011C57.6997 53.9994 61.7462 52.9878 64.8406 50.9646C67.935 48.8223 69.4821 45.2519 69.4821 40.2533V39.1822C69.4821 34.1835 67.935 30.6726 64.8406 28.6494C61.7462 26.5071 57.6997 25.436 52.7011 25.436H35.5631V53.9994Z" fill="#2EC4B6"/>
<path d="M175.221 39.3607H197.715V149.687C197.715 153.733 196.406 157.066 193.787 159.684C191.288 162.302 188.015 163.612 183.969 163.612H131.305V142.189H170.401C173.615 142.189 175.221 140.404 175.221 136.833V115.054H172.008C168.08 125.289 159.63 130.407 146.658 130.407C142.254 130.407 138.148 129.693 134.34 128.264C130.531 126.836 127.199 124.634 124.343 121.659C121.486 118.684 119.225 114.994 117.559 110.591C116.012 106.068 115.238 100.772 115.238 94.7023V39.3607H137.732V90.0608C137.732 96.3685 139.219 101.308 142.195 104.878C145.17 108.329 149.633 110.055 155.584 110.055C162.368 110.055 167.307 107.913 170.401 103.628C173.615 99.2249 175.221 93.2741 175.221 85.7762V39.3607Z" fill="#2EC4B6"/>
<path d="M222.048 39.3607H248.291V2.94229H270.785V39.3607H302.74V60.7832H270.785V101.129C270.785 104.7 272.391 106.485 275.605 106.485H299.527V127.907H262.037C257.991 127.907 254.658 126.598 252.04 123.98C249.541 121.362 248.291 118.029 248.291 113.983V60.7832H222.048V39.3607Z" fill="#2EC4B6"/>
<path d="M353.673 90.9534C353.792 93.5717 354.387 96.0115 355.458 98.2728C356.648 100.415 358.195 102.319 360.1 103.985C362.123 105.533 364.384 106.782 366.884 107.734C369.502 108.567 372.239 108.984 375.095 108.984C380.689 108.984 384.974 108.032 387.949 106.128C390.924 104.104 393.067 101.724 394.376 98.9868L413.656 109.698C412.585 111.959 411.097 114.34 409.193 116.839C407.289 119.219 404.79 121.421 401.695 123.444C398.72 125.468 395.03 127.134 390.627 128.443C386.342 129.752 381.284 130.407 375.453 130.407C368.788 130.407 362.718 129.335 357.243 127.193C351.769 125.051 347.008 121.957 342.962 117.91C339.034 113.864 335.94 108.925 333.679 103.093C331.536 97.2611 330.465 90.6558 330.465 83.2769V82.2058C330.465 75.422 331.596 69.2333 333.857 63.6396C336.237 58.0459 339.451 53.2853 343.497 49.3579C347.544 45.4304 352.245 42.3955 357.6 40.2533C363.075 37.992 368.907 36.8614 375.095 36.8614C382.712 36.8614 389.258 38.23 394.733 40.9674C400.208 43.5857 404.73 46.9776 408.301 51.1431C411.871 55.1896 414.489 59.7121 416.155 64.7107C417.822 69.5903 418.655 74.3509 418.655 78.9924V90.9534H353.673ZM374.917 57.2128C369.204 57.2128 364.563 58.7005 360.992 61.6759C357.422 64.5322 355.101 67.8646 354.03 71.673H395.804C395.09 67.5076 392.829 64.0561 389.02 61.3188C385.331 58.5815 380.63 57.2128 374.917 57.2128Z" fill="#2EC4B6"/>
<path d="M439.418 113.983H450.129V16.867H439.418V2.94229H489.939C495.89 2.94229 501.127 3.77539 505.649 5.44159C510.291 7.10779 514.159 9.36907 517.253 12.2254C520.466 15.0818 522.847 18.5332 524.394 22.5797C526.06 26.5071 526.893 30.7916 526.893 35.4332V37.5755C526.893 41.0269 526.358 44.1808 525.286 47.0371C524.215 49.8934 522.728 52.4522 520.823 54.7135C518.919 56.9748 516.658 58.9385 514.04 60.6047C511.54 62.1519 508.803 63.342 505.828 64.1751V66.3174C511.778 67.9836 516.777 71.197 520.823 75.9576C524.87 80.5991 526.893 86.3118 526.893 93.0956V95.2379C526.893 99.8794 526.06 104.223 524.394 108.27C522.847 112.197 520.466 115.649 517.253 118.624C514.159 121.481 510.291 123.742 505.649 125.408C501.127 127.074 495.89 127.907 489.939 127.907H439.418V113.983ZM465.125 113.983H488.868C495.89 113.983 501.603 112.257 506.006 108.806C510.41 105.235 512.611 100.355 512.611 94.1668V93.0956C512.611 86.6689 510.529 81.6107 506.363 77.9213C502.198 74.1128 496.544 72.2086 489.404 72.2086H465.125V113.983ZM465.125 58.2839H489.404C496.544 58.2839 502.198 56.4392 506.363 52.7498C510.529 49.0603 512.611 44.0022 512.611 37.5755V36.5043C512.611 30.4346 510.41 25.674 506.006 22.2226C501.603 18.6522 495.89 16.867 488.868 16.867H465.125V58.2839Z" fill="#FDFFFC"/>
<path d="M581.575 12.9395C581.575 9.48808 582.765 6.57223 585.145 4.19195C587.645 1.69264 590.62 0.442993 594.072 0.442993C597.523 0.442993 600.439 1.69264 602.819 4.19195C605.318 6.57223 606.568 9.48808 606.568 12.9395C606.568 16.3909 605.318 19.3663 602.819 21.8656C600.439 24.2459 597.523 25.436 594.072 25.436C590.62 25.436 587.645 24.2459 585.145 21.8656C582.765 19.3663 581.575 16.3909 581.575 12.9395ZM556.225 115.054H587.288V52.2142H559.438V39.3607H601.212V115.054H630.133V127.907H556.225V115.054Z" fill="white"/>
<path d="M660.357 39.3607H688.207V2.94229H702.131V39.3607H736.408V52.2142H702.131V109.698C702.131 113.269 703.738 115.054 706.951 115.054H732.123V127.907H701.953C697.906 127.907 694.574 126.598 691.956 123.98C689.456 121.362 688.207 118.029 688.207 113.983V52.2142H660.357V39.3607Z" fill="white"/>
<path d="M791.089 62.2114C791.089 66.4959 792.875 69.7688 796.445 72.0301C800.135 74.2914 806.799 75.779 816.44 76.4931C826.794 77.3262 834.649 79.8255 840.004 83.991C845.479 88.0375 848.216 93.9882 848.216 101.843V102.914C848.216 107.199 847.324 111.067 845.539 114.518C843.872 117.851 841.492 120.707 838.398 123.087C835.422 125.468 831.733 127.253 827.329 128.443C823.045 129.752 818.344 130.407 813.226 130.407C806.323 130.407 800.373 129.514 795.374 127.729C790.494 125.825 786.388 123.385 783.056 120.409C779.843 117.315 777.403 113.864 775.737 110.055C774.07 106.128 773.118 102.2 772.88 98.2728L786.091 95.0594C786.686 101.843 789.304 107.318 793.946 111.483C798.587 115.53 804.776 117.553 812.512 117.553C819.058 117.553 824.294 116.303 828.222 113.804C832.268 111.186 834.292 107.556 834.292 102.914C834.292 97.9157 832.328 94.3453 828.4 92.203C824.473 90.0608 818.106 88.6921 809.299 88.097C799.063 87.3829 791.208 85.0027 785.734 80.9562C780.259 76.9097 777.522 71.0185 777.522 63.2825V62.2114C777.522 58.0459 778.414 54.416 780.2 51.3216C781.985 48.1082 784.365 45.4304 787.341 43.2881C790.435 41.1459 793.886 39.5392 797.695 38.4681C801.503 37.3969 805.49 36.8614 809.656 36.8614C815.487 36.8614 820.605 37.6945 825.009 39.3607C829.412 40.9079 833.102 42.9906 836.077 45.6089C839.052 48.1082 841.313 51.0241 842.861 54.3565C844.527 57.6889 845.598 61.0213 846.074 64.3537L832.863 67.5671C832.268 61.8544 829.948 57.3913 825.901 54.178C821.974 50.9646 816.797 49.3579 810.37 49.3579C807.87 49.3579 805.431 49.6554 803.05 50.2505C800.789 50.7265 798.766 51.5001 796.981 52.5713C795.195 53.6424 793.767 55.011 792.696 56.6772C791.625 58.2244 791.089 60.0692 791.089 62.2114Z" fill="#FDFFFC"/>
</svg>
