<svg width="44" height="44" viewBox="0 0 44 44" fill="none" xmlns="http://www.w3.org/2000/svg">
<path d="M0 11C0 9.54131 0.579463 8.14236 1.61091 7.11091C2.64236 6.07946 4.04131 5.5 5.5 5.5H38.5C39.9587 5.5 41.3576 6.07946 42.3891 7.11091C43.4205 8.14236 44 9.54131 44 11V33C44 34.4587 43.4205 35.8576 42.3891 36.8891C41.3576 37.9205 39.9587 38.5 38.5 38.5H5.5C4.04131 38.5 2.64236 37.9205 1.61091 36.8891C0.579463 35.8576 0 34.4587 0 33V11ZM5.5 8.25C4.77065 8.25 4.07118 8.53973 3.55546 9.05546C3.03973 9.57118 2.75 10.2707 2.75 11V11.5968L22 23.1467L41.25 11.5968V11C41.25 10.2707 40.9603 9.57118 40.4445 9.05546C39.9288 8.53973 39.2293 8.25 38.5 8.25H5.5ZM41.25 14.8032L28.303 22.572L41.25 30.5387V14.8032ZM41.1565 33.7122L25.6465 24.167L22 26.3533L18.3535 24.167L2.8435 33.7095C2.99977 34.2947 3.34487 34.8119 3.82522 35.1809C4.30557 35.5499 4.8943 35.7499 5.5 35.75H38.5C39.1053 35.7501 39.6938 35.5504 40.1741 35.182C40.6544 34.8135 40.9997 34.2969 41.1565 33.7122ZM2.75 30.5387L15.697 22.572L2.75 14.8032V30.5387Z" fill="black"/>
</svg>
