<svg width="960" height="155" viewBox="0 0 960 155" fill="none" xmlns="http://www.w3.org/2000/svg">
<path d="M0 141L26.7 136.5C53.3 132 106.7 123 160 107C213.3 91 266.7 68 320 60.2C373.3 52.3 426.7 59.7 480 73.2C533.3 86.7 586.7 106.3 640 112C693.3 117.7 746.7 109.3 800 114.2C853.3 119 906.7 137 933.3 146L960 155V0H933.3C906.7 0 853.3 0 800 0C746.7 0 693.3 0 640 0C586.7 0 533.3 0 480 0C426.7 0 373.3 0 320 0C266.7 0 213.3 0 160 0C106.7 0 53.3 0 26.7 0H0V141Z" fill="#848484"/>
<path d="M0 30L26.7 36.2C53.3 42.3 106.7 54.7 160 67.7C213.3 80.7 266.7 94.3 320 86.7C373.3 79 426.7 50 480 40.2C533.3 30.3 586.7 39.7 640 55.2C693.3 70.7 746.7 92.3 800 102.2C853.3 112 906.7 110 933.3 109L960 108V0H933.3C906.7 0 853.3 0 800 0C746.7 0 693.3 0 640 0C586.7 0 533.3 0 480 0C426.7 0 373.3 0 320 0C266.7 0 213.3 0 160 0C106.7 0 53.3 0 26.7 0H0V30Z" fill="#011627"/>
</svg>
