<svg width="44" height="44" viewBox="0 0 44 44" fill="none" xmlns="http://www.w3.org/2000/svg">
<g clip-path="url(#clip0_115_117)">
<path d="M37.4027 6.39665C35.3859 4.36027 32.9838 2.74588 30.3364 1.64766C27.6891 0.549442 24.8496 -0.0106173 21.9835 0.000152419C9.97425 0.000152419 0.187 9.78465 0.176 21.7967C0.176 25.6439 1.1825 29.3867 3.08275 32.7004L0 44.0002L11.561 40.9697C14.7578 42.7138 18.3418 43.6263 21.9835 43.6234H21.9945C34.0065 43.6234 43.791 33.8389 43.802 21.8159C43.8044 18.9506 43.2401 16.1131 42.1413 13.4667C41.0426 10.8204 39.434 8.41762 37.4027 6.39665ZM21.9835 39.9329C18.7362 39.9303 15.5491 39.0566 12.7545 37.4029L12.0945 37.0069L5.236 38.8054L7.0675 32.1147L6.6385 31.4244C4.82297 28.5378 3.86278 25.1957 3.86925 21.7857C3.86925 11.8142 12.001 3.67965 21.9945 3.67965C24.3753 3.67538 26.7334 4.14241 28.9328 5.0538C31.1322 5.9652 33.1295 7.30294 34.8095 8.9899C36.495 10.6706 37.8312 12.6681 38.7412 14.8676C39.6511 17.067 40.1169 19.4247 40.1115 21.8049C40.1005 31.8122 31.9688 39.9329 21.9835 39.9329ZM31.9248 26.3644C31.383 26.0922 28.7072 24.7749 28.204 24.5879C27.7035 24.4092 27.3377 24.3157 26.9802 24.8602C26.6145 25.4019 25.5695 26.6367 25.256 26.9914C24.9425 27.3572 24.618 27.3984 24.0735 27.1289C23.5317 26.8539 21.7745 26.2819 19.6955 24.4202C18.073 22.9764 16.9867 21.1889 16.6623 20.6472C16.3487 20.1027 16.632 19.8112 16.9042 19.5389C17.1435 19.2969 17.446 18.9009 17.7183 18.5874C17.9932 18.2739 18.084 18.0429 18.2627 17.6799C18.4415 17.3114 18.3562 16.9979 18.2215 16.7257C18.084 16.4534 16.9977 13.7667 16.5385 12.6832C16.0985 11.6134 15.6502 11.7619 15.3147 11.7482C15.0012 11.7289 14.6355 11.7289 14.2698 11.7289C13.9936 11.7359 13.7218 11.7999 13.4715 11.9168C13.2212 12.0336 12.9977 12.2009 12.815 12.4082C12.3145 12.9527 10.9148 14.2699 10.9148 16.9567C10.9148 19.6434 12.8672 22.2257 13.1422 22.5914C13.4117 22.9572 16.9757 28.4544 22.4455 30.8194C23.738 31.3832 24.7555 31.7159 25.5503 31.9689C26.8565 32.3869 28.0362 32.3237 28.9767 32.1889C30.0217 32.0294 32.197 30.8689 32.6562 29.5957C33.1073 28.3197 33.1073 27.2307 32.9697 27.0024C32.835 26.7714 32.4692 26.6367 31.9248 26.3644Z" fill="black"/>
</g>
<defs>
<clipPath id="clip0_115_117">
<rect width="44" height="44" fill="white"/>
</clipPath>
</defs>
</svg>
